<svg enable-background="new 0 0 500 500" viewBox="0 0 500 500" xmlns="http://www.w3.org/2000/svg"><path d="m483 101.6s-6.6-5.6-17.4 10.5-15.3 25.5-15.3 25.5-2.7 3.3-4.9.7-4.8-9.7-9.1-9c-4.5.7-6.5 5.4-6.5 12.6s-.7 23.1-.8 24.5-1.1 3.4-2.9 1.8-11.4-15.3-17.7-10.3c-6.2 5-3 25.1-2.7 27.3s-.2 3.1-1.3 3.5-3.9-4.5-6.8-8.3-6.9-7.7-10.3-4.5-6.1 17.7 5 43.1l5.9 11.4 12.9.8c27.7.1 40-8.1 41.5-12.4 1.6-4.3-3.6-6.5-8.2-7.7s-10.3-1.8-10.3-3c-.1-1.2.5-2 2.7-2.6s21.9-5.6 24-13.3-14.3-11.1-16.5-12.1c-2.1-1-.8-2.7.5-3.4 1.3-.6 15.6-7.5 22.2-10.4s10.1-6.6 9-11c-1.1-4.3-8.6-3.8-11.9-4.8s-1.3-4.8-1.3-4.8 6.9-7.9 17.4-24.1c10.5-16.3 2.5-20.2 2.5-20.2" fill="#ebebeb"/><path d="m395.9 232.3c7.8-11.9 21.9-32.9 34-50.9s22.9-34.4 30.8-46.2c3.9-5.9 7.1-10.7 9.2-14.1 1.1-1.6 1.9-2.9 2.5-3.8.3-.4.5-.8.7-1s.2-.3.2-.3-.1.1-.2.4c-.2.2-.4.6-.6 1-.6.9-1.4 2.2-2.5 3.9-2.1 3.4-5.3 8.2-9.1 14.1-7.8 11.9-18.6 28.3-30.7 46.3s-26.2 39-34.1 50.8" fill="#e0e0e0"/><path d="m439.5 139.2s.1.3.2.9.3 1.4.4 2.5c.3 2.1.7 5 1.1 8.3.3 3.2.7 6.1.9 8.3.1 1 .2 1.8.3 2.5.1.6.1.9.1.9s-.1-.3-.2-.9-.3-1.4-.4-2.5c-.3-2.1-.7-5-1-8.3-.4-3.2-.7-6.1-1-8.3-.1-1-.2-1.8-.3-2.5-.1-.5-.1-.8-.1-.9z" fill="#e0e0e0"/><path d="m443.7 163c0-.1 6-1.2 13.4-2.4s13.5-2.1 13.5-2-6 1.2-13.4 2.4c-7.5 1.3-13.5 2.1-13.5 2z" fill="#e0e0e0"/><path d="m423.9 189.9s.3 0 .9.1c.7.1 1.5.2 2.6.3 2.2.3 5.2.6 8.5.9s6.3.4 8.5.5c1 0 1.9.1 2.6.1.6 0 .9.1.9.1s-.3.1-.9.1-1.5 0-2.6 0c-2.2 0-5.2-.1-8.5-.4s-6.3-.7-8.5-1c-1.1-.2-1.9-.3-2.5-.4-.7-.2-1-.3-1-.3z" fill="#e0e0e0"/><path d="m415.4 169.2s.2.3.4.8c.3.6.6 1.3 1 2.2.8 1.8 1.9 4.4 3.1 7.2s2.3 5.4 3 7.3c.3.9.6 1.6.9 2.2.2.5.3.8.3.8s-.2-.3-.4-.8c-.3-.6-.6-1.3-1-2.2-.8-1.8-1.9-4.4-3.1-7.2s-2.3-5.4-3-7.3c-.3-.9-.6-1.6-.9-2.2-.2-.5-.3-.8-.3-.8z" fill="#e0e0e0"/><path d="m395 190.7s.2.3.5 1 .8 1.7 1.3 2.8c1.1 2.4 2.5 5.6 4.1 9.2s3 6.9 4 9.3c.5 1.1.9 2.1 1.2 2.8s.4 1 .4 1.1c0 0-.2-.3-.5-1s-.8-1.7-1.3-2.8c-1.1-2.4-2.5-5.6-4.1-9.2s-3-6.9-4-9.3c-.5-1.1-.9-2.1-1.2-2.8s-.5-1.1-.4-1.1z" fill="#e0e0e0"/><path d="m406.3 216.2s.4 0 1.2.1 1.9.2 3.3.3c2.8.2 6.6.6 10.8.8s8 .4 10.8.4c1.3 0 2.4.1 3.3.1.8 0 1.2 0 1.2.1 0 0-.4.1-1.2.1s-1.9 0-3.3 0c-2.8 0-6.6-.1-10.8-.3s-8-.6-10.8-.9c-1.4-.2-2.5-.3-3.3-.4-.8-.2-1.2-.3-1.2-.3z" fill="#e0e0e0"/><path d="m48.2 61.5h69.4v72.4h-69.4z" fill="#e0e0e0"/><path d="m43.5 61.5h69.4v72.4h-69.4z" fill="#fafafa"/><path d="m112.9 133.9h-69.5v-72.4h69.5zm-69.4 0h69.4v-72.4h-69.4z" fill="#e0e0e0"/><path d="m52.8 71.2h50.8v52.9h-50.8z" fill="#fafafa"/><path d="m52.8 124.5s-.4.6-1.3 1.5c-.8.9-2 2-3.2 3.3-1.3 1.3-2.5 2.4-3.3 3.2-.9.8-1.4 1.3-1.5 1.2 0 0 .4-.6 1.2-1.5s2-2 3.2-3.3c1.3-1.3 2.5-2.4 3.3-3.2 1-.8 1.6-1.2 1.6-1.2z" fill="#e0e0e0"/><path d="m103.6 124.4s.6.4 1.5 1.3c.9.8 2 2 3.3 3.2 1.3 1.3 2.4 2.5 3.2 3.3.8.9 1.3 1.4 1.2 1.5 0 0-.6-.4-1.5-1.2s-2-2-3.3-3.2c-1.3-1.3-2.4-2.5-3.2-3.3-.8-1-1.3-1.6-1.2-1.6z" fill="#e0e0e0"/><path d="m103.4 71.4s.4-.6 1.3-1.5c.8-.9 2-2 3.2-3.3 1.3-1.3 2.5-2.4 3.3-3.2.9-.8 1.4-1.3 1.5-1.2 0 0-.4.6-1.2 1.5s-2 2-3.2 3.3c-1.3 1.3-2.5 2.4-3.3 3.2-1 .8-1.5 1.2-1.6 1.2z" fill="#e0e0e0"/><path d="m52.7 71.5s-.6-.4-1.5-1.3c-.9-.8-2-2-3.3-3.2-1.3-1.3-2.4-2.5-3.2-3.3-.8-.9-1.3-1.4-1.2-1.5 0 0 .6.4 1.5 1.2s2 2 3.3 3.2c1.3 1.3 2.4 2.5 3.2 3.3.7 1 1.2 1.6 1.2 1.6z" fill="#e0e0e0"/><path d="m103.4 124.2s0-.1 0-.3 0-.4 0-.7c0-.7 0-1.6 0-2.9 0-2.5 0-6.2-.1-10.8 0-9.3-.1-22.5-.1-38.3l.2.2c-14.8 0-32.1 0-50.6 0l.2-.2v52.9l-.2-.2c15.2 0 27.8.1 36.7.1 4.4 0 7.9 0 10.3.1h2.7.7c.1.1.2.1.2.1s-.1 0-.2 0c-.2 0-.4 0-.7 0-.6 0-1.5 0-2.7 0-2.4 0-5.8 0-10.3.1-8.9 0-21.6.1-36.8.1h-.2v-.2c0-15.3 0-33.5 0-52.9v-.2h.2 50.6.2v.2c0 15.9-.1 29.1-.1 38.4 0 4.6 0 8.2-.1 10.7v2.8.7c.1.2.1.3.1.3z" fill="#e0e0e0"/><path d="m69.7 89.2h16.9v16.9h-16.9z" fill="#ebebeb"/><g fill="#e0e0e0"><path d="m46.7 354.2c-5.1-3.2-10.9-5.2-16.8-5.8-2.7-.3-5.7-.2-7.9 1.5-.5.4-.9.9-.8 1.5.1.4.4.7.8 1 6.7 5.1 17.1 5.8 24.7 1.8"/><path d="m46.3 353.7c-3.8-3-7.6-6-10.8-9.5-3.2-3.6-5.8-7.9-6.8-12.6-.3-1.4-.4-3.1.5-4.2 8.6 6.8 15.4 15.5 17.1 26.3"/><path d="m46.6 354.1c-.7-4.7-.9-9.6.2-14.2 1.1-4.7 3.6-9.1 7.6-11.8 1.5 3.5.9 7.5-.2 11.2-1.6 5.6-4.2 11-7.5 15.8"/><path d="m55.1 369.3c-5.1.6-9.6 3.3-13.5 6.8-3.8 3.5-6.6 8.2-7.7 13.2 5-.3 9.3-3.9 12.4-7.9 3.1-3.9 5.3-8.3 8.8-12.1"/><path d="m56.9 371.8c-4.1-10.2-2.6-22.5 3.8-31.4 3 10.4 1.9 22.1-3.8 31.4"/><path d="m68.1 385.1c-4.7-.3-9.4.8-13.5 3.2-4.1 2.3-7.4 5.9-9.5 10.1-.3.6-.5 1.3-.2 1.8.3.4 1 .5 1.5.4 4.5-.3 8.5-3 11.9-6.1 3.3-3.1 6.2-6.7 9.9-9.4"/><path d="m67.8 384.4c-2.4-7.7-2.6-16.1-.4-23.9.8-3.1 2.3-6.3 5.1-7.8.2-.1.5-.2.8-.1.2.1.4.3.5.6 1 2.1 1.3 4.5 1.2 6.9-.1 2.3-.6 4.6-1.1 6.9-.9 4.2-1.4 8.8-3.7 12.5-.6.9-1 1.8-1.5 2.7-.4.9-.4 1.3-.8 2"/><path d="m97.4 388.8c-2.2-8.4.1-18.5 5.4-25.3.4-.5.9-1 1.5-1 1 .1 1.2 1.4 1.2 2.4-.4 8.5-3.2 16.9-8.1 23.9"/><path d="m100.1 390.6c10.2 2.6 21.8.1 30.2-6.2-5-2.5-10.9-3.3-16.4-2-5.4 1.3-10.4 3.8-13.8 8.2"/><path d="m102.3 385.1c5.7-9.3 16.6-15.3 27.4-15.9-1.3 4.4-4.9 7.9-9 9.9-4.1 2.1-8.7 3-13.2 3.9-1.6.3-4 .7-5.2 2.1"/><path d="m98 358.1c1.5-5.3 3.1-10.6 3.5-16.1s-.4-11.2-3.2-15.9c-5.3 10.3-5.8 22.3-.5 32.5"/><path d="m115.9 349c6.2-11.3 18.9-20.3 31.7-21.6-5 12.4-18.5 21.9-31.7 21.6"/><path d="m111.9 351.2c9.3 1.4 17.2 7.3 25.8 10.9 1.9.8 3.8 1.4 5.8 1.1s3.9-1.6 4.4-3.5c.4-1.6-.4-3.3-1.5-4.5-1.2-1.2-2.7-1.9-4.2-2.6-9.4-3.9-19.5-4-29.5-1.6"/><path d="m106.6 357.7c2.1.6 2.8 1.7 4.5 3.1 5.6 4.8 12.4 8.3 19.6 10.1.7.2 1.7.3 2.1-.4.3-.6-.1-1.3-.5-1.8-3-3.8-7.3-6.3-11.8-8s-8.4-3.7-13.8-3.3"/><path d="m100.5 318.5c7.5 7 18.1 10.6 28.4 9.7.5 0 1-.1 1.3-.5.7-.8-.1-2-1-2.6-8.3-6.5-18.4-9.2-28.7-6.6"/><path d="m107.7 315.9c10-7.5 23.6-9.7 35.4-5.8-4.5 4.4-10.7 6.8-16.9 7.4s-12.4-.1-18.5-1.6"/><path d="m104.9 297.8c-.8-8.3-.3-14.9-.9-23.3 0-.7-.2-1.5-.8-1.7-.9-.3-1.6.7-1.9 1.6-2.5 7.7-1.1 16.6 3.6 23.2"/><path d="m104.3 298.8c5.6-3.5 9.9-8.1 13.8-13.4 2.7-3.7 5-8.2 4.4-12.8-3.8-.1-7.5 2-10 4.9s-4 6.5-5.1 10.2-1.8 7.5-3.1 11.1"/><path d="m117.8 295c12.4-4.6 24-11.4 34-20-4.1-1.6-8.7-.7-12.8 1-9.3 3.7-16.8 10.1-21.4 19"/><path d="m108.1 303.3c6.3.7 12.6 1.1 18.9.1 6.1-1 11.9-3.4 17.6-5.9.5-.2 1-.4 1.2-.9s0-1.1-.4-1.5-1-.6-1.5-.7c-6.2-1.7-12.9-.9-19 1.1-6.2 2.1-11.2 4.6-16.8 7.8"/><path d="m72.3 318.8c-4.3-8.6-4-18.7-.3-27.6 2.6 4 2.9 9 2.4 13.7s-1.9 9.6-2 14.3"/><path d="m55.2 310.2c-10.7-.2-21.4 4.3-28.6 12.2 5.3.8 10.8-.5 15.7-2.9s9.2-5.7 13.4-9"/><path d="m43.7 306.3c-5.2-.4-10.3-1.1-15.3.5-5 1.5-9.6 5-11.6 9.9 4.9.6 9.8-.7 14.3-2.7 4.5-2.1 8.5-4.9 12.6-7.7"/><path d="m60.7 306.5c-4.7-3.1-9.5-6.2-15-7.5s-11.8-.3-15.6 3.8c4.4 2.6 9.8 2.9 14.9 2.9s11.4-.1 16.3 1.7"/><path d="m60.7 306.7c-8-7.9-11.1-22.1-7.9-32.9 6.4 9.7 9.2 21.5 7.9 32.9"/><path d="m82.8 284.4c1.5-3.5 2.6-7.2 3.9-10.8 1.4-3.6 3.1-7.1 5.6-10 2.6-2.8 6.1-5 10-5.2-2.4 10.9-9.6 20.6-19.3 26"/><path d="m78.8 289c-2.5-3.5-5.4-8.1-8.8-10.7s-7.8-4.1-12-3.1c4.3 7.5 12.2 12.8 20.8 13.8"/><path d="m79.6 284.7c-1.6-4.2-3.3-8.4-4-12.8s-.3-9.2 2-13.1c4.4 8.3 5.8 17.3 2.2 26"/><path d="m82.9 258.8c2.5-8.3 10.1-14.4 18.2-17.1 1-.4 2.1-.6 3.2-.5 1.1.2 2.1.9 2.4 2 .3 1.4-.9 2.7-2 3.6-6.4 5.3-13.8 9.5-21.8 12"/><path d="m83 252c.3-5.3.7-10.7 2.4-15.8s5.1-9.8 9.9-12c.8 5.4-1.5 10.7-4.4 15.4-2.9 4.6-6.3 9-8 14.2"/><path d="m82.8 255.7c-2.1-6-2.3-13.7-5.9-18.9-2.5-3.7-6.6-6.2-8.7-10.1-1.4 3.6-1 7.8.5 11.4s4 6.7 6.7 9.6c2.7 2.8 4.9 5 7.4 8"/><path d="m82.9 433.1c-.2 0-.3-40.2-.3-89.8s.1-89.8.3-89.8.3 40.2.3 89.8c-.1 49.6-.2 89.8-.3 89.8z"/><path d="m118 312.7s-.5.2-1.5.6c-1.1.4-2.5.8-4.2 1.4-3.5 1.2-8.3 2.9-13.6 5.1-5.2 2.2-10.1 4-12.8 6.4-1.4 1.2-2.2 2.5-2.6 3.4s-.5 1.5-.5 1.5 0-.1 0-.4.1-.7.3-1.2c.3-1 1.1-2.4 2.5-3.6 1.4-1.3 3.3-2.4 5.6-3.5 2.2-1 4.7-2.1 7.3-3.2 5.2-2.1 10.1-3.8 13.6-4.9 1.8-.6 3.2-1 4.2-1.2 1.1-.3 1.7-.4 1.7-.4z"/><path d="m129.5 284.4s-.1.2-.4.5-.8.7-1.3 1.2c-1.2 1.1-2.8 2.6-4.8 4.4-4.2 3.7-9.8 8.7-16 14.3-6.3 5.6-11.7 10.9-15.4 14.9-1.9 2-3.4 3.7-4.4 4.8-.5.5-.9 1-1.2 1.3s-.4.5-.4.4c0 0 .1-.2.3-.5s.6-.8 1.1-1.4c1-1.2 2.4-2.9 4.2-4.9 3.7-4.1 9.1-9.5 15.3-15.1 6.3-5.6 12-10.5 16.1-14.1 2-1.7 3.7-3.2 4.9-4.2.6-.5 1-.8 1.4-1.1.4-.4.6-.5.6-.5z"/><path d="m100.2 310.4c-.2-.1 1.1-3.1 2.4-6.9s1.9-7 2.1-7-.2 3.3-1.5 7.2c-.7 1.9-1.4 3.6-1.9 4.8-.6 1.2-1 1.9-1.1 1.9z"/><path d="m82.9 334.7s-.4-.4-1-1.1c-.7-.8-1.5-1.9-2.5-3.2-2.1-2.7-4.9-6.4-8.2-10.4-3.2-4.1-6.2-7.7-8.3-10.3-1-1.2-1.9-2.3-2.5-3.1-.6-.7-.9-1.2-.9-1.2s.4.3 1 1 1.6 1.7 2.7 3c2.2 2.6 5.2 6.2 8.5 10.2 3.2 4.1 6 7.8 8 10.5 1 1.4 1.8 2.5 2.3 3.3.7.9.9 1.3.9 1.3z"/><path d="m75.2 324.8c-.1.1-2.1-2.3-3.2-6-.8-2.6-.8-5-.7-6.1h.3c-.1.5-.2.7-.2.7s0-.3 0-.7h.3c.1 1.1.3 3.4 1 5.9.9 3.6 2.7 6.1 2.5 6.2z"/><path d="m65.3 312.3c-.1.1-.7-.8-2.3-1.3-1.5-.6-3.8-.7-6.3-.5s-4.7.6-6.3 1-2.6.7-2.6.6.9-.5 2.5-1 3.8-1 6.4-1.2c2.5-.2 4.9 0 6.5.7 1.5.7 2.1 1.7 2.1 1.7z"/><path d="m62.9 309.3c0 .1-1.3-.5-3.5-1.3-2.1-.7-5.2-1.5-8.6-1.8s-6.6 0-8.8.4-3.6.8-3.6.7c0 0 .3-.2.9-.4s1.5-.5 2.6-.7c2.2-.5 5.4-.9 8.9-.6s6.6 1.1 8.7 2c1.1.4 1.9.8 2.5 1.1.6.4.9.6.9.6z"/><path d="m82.8 296.5c-.2 0-1.3-3.9-2.5-8.7-1.2-4.9-2.1-8.8-2-8.9.2 0 1.3 3.9 2.5 8.7 1.3 4.9 2.2 8.8 2 8.9z"/><path d="m83 296.5c-.2.1-.9-2.6-2.8-5.2-1.8-2.7-4.2-4.1-4.1-4.2 0-.1.7.2 1.6.8s2 1.7 3 3.1c1.9 2.7 2.4 5.5 2.3 5.5z"/><path d="m82.9 411.7c-.1 0-.2-1-.6-2.7s-1.3-4.1-2.7-7c-2.8-5.7-7.8-12.9-14.3-20.1-3.2-3.6-6.3-7.1-8.9-10.3-2.6-3.3-4.8-6.4-6.4-9.2s-2.6-5.1-3.2-6.8c-.3-.8-.5-1.5-.6-1.9s-.2-.7-.2-.7c.1 0 .3.9 1 2.6.7 1.6 1.7 4 3.4 6.7 1.6 2.7 3.8 5.8 6.4 9s5.7 6.7 8.9 10.3c6.4 7.2 11.5 14.5 14.2 20.3 1.4 2.9 2.2 5.3 2.5 7.1.2.9.3 1.5.4 2 .1.4.1.7.1.7z"/><path d="m114.6 375.8s-.6.4-1.7.9c-1.1.6-2.6 1.5-4.3 2.9-1.7 1.3-3.7 3.1-5.7 5.2s-4 4.5-6.1 7.2c-4.2 5.2-8.1 9.9-10.4 13.6-1.2 1.8-2.1 3.4-2.6 4.5-.6 1.1-.9 1.7-.9 1.7s0-.2.2-.5c.1-.3.3-.7.6-1.3.5-1.1 1.3-2.7 2.5-4.6 2.3-3.8 6.2-8.5 10.3-13.7 2.1-2.6 4.2-5.1 6.2-7.2s4-3.8 5.8-5.1 3.3-2.2 4.5-2.7c.6-.3 1-.4 1.3-.6.1-.2.3-.3.3-.3z"/><path d="m115.2 387.5c0 .1-1.3.2-3.5.5s-5.2.6-8.3 1.6-5.8 2.6-7.5 3.9-2.5 2.4-2.6 2.4c0 0 .1-.3.5-.8s1-1.2 1.8-1.9c1.7-1.4 4.3-3.1 7.5-4.2 3.2-1 6.3-1.3 8.5-1.5 2.3-.1 3.6-.1 3.6 0z"/><path d="m94.3 394.6c-.2-.1 1.4-2.5 2.6-5.8s1.4-6.2 1.6-6.1c.1 0 .1.7-.1 1.9-.1 1.2-.4 2.8-1 4.4-.6 1.7-1.4 3.1-2 4.1s-1 1.6-1.1 1.5z"/><path d="m124.9 344.6s-.2.1-.6.3-1 .4-1.7.8c-.7.3-1.6.7-2.6 1.2s-2.2 1-3.4 1.8c-.6.3-1.3.7-1.9 1.1-.7.4-1.3.8-2 1.3-1.4.9-2.8 1.9-4.3 3-3 2.2-6.1 4.9-9.1 8s-5.5 6.3-7.7 9.3c-1 1.5-2 3-2.8 4.4-.4.7-.8 1.4-1.2 2.1s-.7 1.3-1 2c-.7 1.2-1.2 2.4-1.6 3.4-.5 1-.9 1.9-1.1 2.6-.3.7-.5 1.2-.7 1.7-.2.4-.3.6-.3.6s0-.2.2-.6c.2-.5.4-1 .6-1.7.3-.7.6-1.7 1-2.7.5-1 .9-2.2 1.6-3.5.3-.6.7-1.3 1-2 .4-.7.8-1.4 1.2-2.1.8-1.5 1.8-2.9 2.8-4.5 2.1-3.1 4.7-6.3 7.7-9.4s6.2-5.8 9.2-8c1.5-1.1 3-2.1 4.4-3 .7-.4 1.4-.9 2.1-1.3s1.3-.7 1.9-1.1c1.2-.7 2.4-1.2 3.4-1.7s1.9-.9 2.6-1.1c.7-.3 1.2-.5 1.7-.7.4-.1.6-.2.6-.2z"/><path d="m99.8 361.4c-.1 0 .2-1 1.4-2.1 1.1-1.1 3.2-2.1 5.6-2.1 2.4-.1 4.4.6 5.9 1.1 1.4.6 2.2 1 2.2 1.1s-.9-.2-2.3-.7c-1.4-.4-3.4-1-5.7-1-2.2.1-4.2.9-5.3 1.9-1.3 1-1.7 1.9-1.8 1.8z"/><path d="m96 365.3c-.2-.1 1.3-2.2 1.6-5.1.4-3-.5-5.3-.4-5.4.1 0 .4.5.7 1.5s.5 2.4.3 3.9-.7 2.9-1.2 3.8-.9 1.4-1 1.3z"/><path d="m55.1 417.5c.9 15.4 5.5 31 12.6 46.8h31c6.8-15.6 11.1-31.2 11.9-46.8z"/></g><path d="m105.5 442.3c0 .2-10.2.3-22.8.3s-22.8-.1-22.8-.3 10.2-.3 22.8-.3 22.8.1 22.8.3z" fill="#fafafa"/><path d="m104.8 447.9c0 .2-9.6.3-21.3.3-11.8 0-21.3-.1-21.3-.3s9.6-.3 21.3-.3c11.8 0 21.3.1 21.3.3z" fill="#fafafa"/><path d="m68.2 427.5c.2 0 .3 3.2.3 7.1s-.1 7.1-.3 7.1-.3-3.2-.3-7.1.2-7.1.3-7.1z" fill="#fafafa"/><path d="m84.8 427.5c.2 0 .3 3.3.3 7.4s-.1 7.4-.3 7.4-.3-3.3-.3-7.4.1-7.4.3-7.4z" fill="#fafafa"/><path d="m100.4 427.4c.2 0 .3 3.4.3 7.5 0 4.2-.1 7.5-.3 7.5s-.3-3.4-.3-7.5.1-7.5.3-7.5z" fill="#fafafa"/><path d="m109.6 427.5c0 .2-12 .3-26.7.3-14.8 0-26.7-.1-26.7-.3s12-.3 26.7-.3 26.7.2 26.7.3z" fill="#fafafa"/><path d="m413.3 466h-261.9c-6.4 0-11.5-5.2-11.5-11.5v-385.9c0-6.4 5.2-11.5 11.5-11.5h261.8c6.4 0 11.5 5.2 11.5 11.5v385.8c.1 6.4-5 11.6-11.4 11.6z" fill="#263238"/><path d="m148.9 85.1h267v341.5h-267z" fill="#fff"/><path d="m293.3 445.5c0 6-4.9 10.9-10.9 10.9s-10.9-4.9-10.9-10.9 4.9-10.9 10.9-10.9c6-.1 10.9 4.8 10.9 10.9z" fill="#455a64"/><path d="m324.1 73.4h-83.4c-.7 0-1.2-.5-1.2-1.2v-2.1c0-.7.5-1.2 1.2-1.2h83.4c.7 0 1.2.5 1.2 1.2v2.1c0 .6-.6 1.2-1.2 1.2z" fill="#455a64"/><path d="m148.9 84.6h267v91.7h-267z" fill="#e8505b"/><path d="m249.1 188h156.9v230h-156.9z" fill="#fff"/><path d="m406 418c0-2.1 0-94.4-.1-230l.1.1c-47.7 0-100.9 0-156.9 0l.1-.1v230l-.1-.1c95.5.1 155.2.1 156.9.1-1.7 0-61.4 0-156.9.1h-.1v-.1c0-63.6 0-143.5 0-230v-.1h.1 156.9.1v.1c-.1 135.6-.1 227.9-.1 230z" fill="#e0e0e0"/><path d="m264.9 217.3c0 .5-.4.7-.8.7-.6 0-1-.4-1-1.2s.5-1.3 1.1-1.3c.2 0 .4 0 .6.1l-.1.2c-.1-.1-.3-.1-.5-.1-.5 0-.9.3-.9 1v.2c.1-.3.4-.4.7-.4.5.1.9.4.9.8zm-.3 0c0-.3-.2-.5-.6-.5s-.6.2-.6.5.2.5.6.5.6-.2.6-.5z" fill="#e0e0e0"/><path d="m269.2 217v1.1h-.2v-1c0-.4-.2-.6-.5-.6-.4 0-.6.2-.6.7v1h-.2v-1c0-.4-.2-.6-.5-.6-.4 0-.6.2-.6.7v1h-.2v-1.8h.2v.3c.1-.2.4-.3.7-.3s.5.1.6.4c.1-.2.4-.4.7-.4.3-.3.6 0 .6.5z" fill="#e0e0e0"/><path d="m269.8 215.6c0-.1.1-.2.2-.2s.2.1.2.2-.1.2-.2.2-.2-.1-.2-.2zm.1.6h.2v1.8h-.2z" fill="#e0e0e0"/><path d="m272.5 217v1.1h-.2v-1c0-.4-.2-.6-.5-.6-.4 0-.6.2-.6.7v1h-.2v-1.8h.2v.3c.1-.2.4-.4.7-.4.3-.1.6.2.6.7z" fill="#e0e0e0"/><path d="m274.8 216.2v1.8h-.2v-.3c-.1.2-.4.3-.7.3-.5 0-.8-.3-.8-.8v-1.1h.2v1c0 .4.2.6.5.6.4 0 .6-.2.6-.7v-1h.4z" fill="#e0e0e0"/><path d="m276.5 217.9c-.1.1-.2.1-.4.1-.3 0-.5-.2-.5-.5v-1.1h-.3v-.2h.3v-.4h.2v.4h.6v.2h-.6v1.1c0 .2.1.3.3.3.1 0 .2 0 .3-.1z" fill="#e0e0e0"/><path d="m278.4 217.2h-1.5c0 .4.3.6.7.6.2 0 .4-.1.6-.2l.1.2c-.2.2-.4.3-.7.3-.6 0-1-.4-1-.9s.4-.9.9-.9c.6-.1.9.3.9.9 0-.1 0 0 0 0zm-1.5-.2h1.3c0-.4-.3-.6-.6-.6-.4 0-.7.3-.7.6z" fill="#e0e0e0"/><path d="m278.7 217.8.1-.2c.1.1.4.2.6.2.3 0 .5-.1.5-.3 0-.5-1.2-.1-1.2-.8 0-.3.3-.5.7-.5.2 0 .5.1.6.2l-.1.2c-.2-.1-.3-.2-.5-.2-.3 0-.5.1-.5.3 0 .5 1.2.1 1.2.8 0 .3-.3.5-.8.5-.2.1-.5 0-.6-.2z" fill="#e0e0e0"/><path d="m282.9 216.9v1.1h-.2v-.3c-.1.2-.3.3-.6.3-.4 0-.7-.2-.7-.5s.2-.5.7-.5h.6v-.1c0-.3-.2-.5-.5-.5-.2 0-.5.1-.6.2l-.1-.2c.2-.2.5-.2.7-.2.4 0 .7.2.7.7zm-.2.6v-.3h-.6c-.4 0-.5.1-.5.3s.2.3.5.3c.3.1.5-.1.6-.3z" fill="#e0e0e0"/><path d="m285.3 216.2v1.6c0 .6-.3.9-.9.9-.3 0-.7-.1-.8-.3l.1-.2c.2.2.4.2.7.2.5 0 .7-.2.7-.7v-.2c-.2.2-.4.4-.7.4-.5 0-.9-.4-.9-.9s.4-.9.9-.9c.3 0 .6.1.7.4v-.3zm-.3.9c0-.4-.3-.7-.7-.7s-.7.3-.7.7.3.7.7.7.7-.3.7-.7z" fill="#e0e0e0"/><path d="m285.8 217.1c0-.5.4-.9.9-.9s.9.4.9.9-.4.9-.9.9-.9-.3-.9-.9zm1.6 0c0-.4-.3-.7-.7-.7s-.7.3-.7.7.3.7.7.7.7-.2.7-.7z" fill="#e0e0e0"/><path d="m391 243.9c0 .1-29.2.3-65.2.3s-65.2-.1-65.2-.3c0-.1 29.2-.3 65.2-.3 36 .1 65.2.2 65.2.3z" fill="#263238"/><path d="m391 251.3c0 .1-29.2.3-65.2.3s-65.2-.1-65.2-.3c0-.1 29.2-.3 65.2-.3 36 .1 65.2.2 65.2.3z" fill="#263238"/><path d="m391 258.7c0 .1-29.2.3-65.2.3s-65.2-.1-65.2-.3 29.2-.3 65.2-.3c36 .1 65.2.2 65.2.3z" fill="#263238"/><path d="m328.4 266.1s-.2 0-.7.1c-.5 0-1.2 0-2 0-1.8 0-4.3 0-7.4.1-6.3 0-14.9 0-24.4.1-9.5 0-18.1-.1-24.4-.1-3.1 0-5.6-.1-7.4-.1-.8 0-1.5 0-2 0s-.7 0-.7-.1c0 0 .2 0 .7-.1h2c1.8 0 4.3 0 7.4-.1 6.3 0 14.9 0 24.4-.1 9.5 0 18.1.1 24.4.1 3.1 0 5.6.1 7.4.1h2c.4.1.7.1.7.1z" fill="#263238"/><path d="m275.6 261h105v139.6h-105z" fill="#e8505b" transform="matrix(.00557201 -1 1 .00557201 -4.554 657.011)"/><path d="m258 382.9 49.1-65 30 41 20.6-21.7 39.9 46.5z" fill="#e8505b"/><path d="m350.2 310.2c0 6.1-5 11-11.1 10.9-6.1 0-11-5-10.9-11.1 0-6.1 5-11 11.1-10.9 6 0 10.9 5 10.9 11.1z" fill="#e8505b"/><path d="m258 382.9 49.1-65 30 41 20.6-21.7 39.9 46.5z" opacity=".3"/><path d="m350.2 310.2c0 6.1-5 11-11.1 10.9-6.1 0-11-5-10.9-11.1 0-6.1 5-11 11.1-10.9 6 0 10.9 5 10.9 11.1z" opacity=".3"/><path d="m267.2 208.1v4.2h-.8l-2.1-2.6v2.6h-1v-4.2h.8l2.1 2.6v-2.6z" fill="#263238"/><path d="m268.1 208.1c0-.3.2-.5.6-.5s.6.2.6.5-.2.5-.6.5-.6-.2-.6-.5zm.1 1h.9v3.3h-.9z" fill="#263238"/><path d="m269.8 210.7c0-1 .8-1.7 1.8-1.7.7 0 1.2.3 1.5.8l-.7.4c-.2-.3-.4-.4-.7-.4-.5 0-.9.3-.9.9s.4.9.9.9c.3 0 .6-.1.7-.4l.7.4c-.2.5-.8.8-1.5.8-1.1 0-1.8-.7-1.8-1.7z" fill="#263238"/><path d="m275 211.1-.5.4v.8h-.9v-4.5h.9v2.5l1.4-1.3h1.1l-1.4 1.4 1.5 1.9h-1.1z" fill="#263238"/><path d="m280.9 210.5v1.9h-.9v-1.7c0-.5-.2-.8-.7-.8s-.8.3-.8.9v1.6h-.9v-3.3h.9v.4c.3-.3.6-.4 1.1-.4.7-.1 1.3.4 1.3 1.4z" fill="#263238"/><path d="m284.6 210.5v1.9h-.9v-.4c-.2.3-.5.5-1 .5-.8 0-1.2-.4-1.2-1s.4-1 1.4-1h.8c0-.4-.2-.6-.8-.6-.3 0-.7.1-.9.3l-.3-.7c.4-.3.9-.4 1.4-.4.9-.1 1.5.4 1.5 1.4zm-1 .8v-.3h-.6c-.4 0-.6.2-.6.4s.2.4.5.4c.4-.1.6-.2.7-.5z" fill="#263238"/><path d="m291 210.5v1.9h-1v-1.7c0-.5-.2-.8-.6-.8s-.7.3-.7.9v1.6h-.9v-1.7c0-.5-.2-.8-.6-.8s-.7.3-.7.9v1.6h-.9v-3.3h.9v.4c.2-.3.6-.4 1-.4.5 0 .8.2 1.1.5.3-.3.7-.5 1.2-.5.6-.1 1.2.4 1.2 1.4z" fill="#263238"/><path d="m295 211h-2.5c.1.4.4.7.9.7.3 0 .6-.1.8-.3l.5.5c-.3.3-.8.5-1.3.5-1.1 0-1.9-.7-1.9-1.7s.7-1.7 1.7-1.7 1.7.6 1.7 1.7c.1.1.1.2.1.3zm-2.5-.6h1.6c-.1-.4-.4-.7-.8-.7s-.7.3-.8.7z" fill="#263238"/><path d="m405 394.2c0 .1-34.4.3-76.9.3s-76.9-.1-76.9-.3c0-.1 34.4-.3 76.9-.3 42.4 0 76.9.2 76.9.3z" fill="#e0e0e0"/><path d="m278.5 409.2s.1.1.2.4c.2.3.3.7.5 1.1v.1c-.5-.2-1-.4-1.5-.7h.1c-.9.7-2.6 1.1-4.1.4-.7-.4-1.4-1-1.8-1.9-.4-.8-.4-1.9-.1-2.8.6-1.8 2.4-2.8 4-2.6 1.6.1 2.8 1.3 3.2 2.4s.3 2.2.1 2.8c-.4.6-.6.8-.6.8s.2-.3.4-.9.3-1.6-.1-2.7c-.4-1-1.6-2.1-3.1-2.2-1.5-.2-3.3.8-3.8 2.5-.3.9-.2 1.9.1 2.7s1 1.4 1.7 1.8c1.4.8 3 .4 3.9-.3h.1c.6.3 1.1.5 1.5.7l-.1.1c-.2-.4-.3-.8-.5-1.2-.1-.3-.1-.5-.1-.5z" fill="#263238"/><path d="m264 403.4c-.7 0-1.3.3-1.8.8-.5-.5-1.1-.8-1.8-.8-1.4 0-2.5 1.1-2.5 2.5 0 2.2 4.3 4.9 4.3 4.9s4.3-2.7 4.3-4.9c0-1.4-1.1-2.5-2.5-2.5z" fill="#e8505b"/><path d="m398.4 411.6s0-.2 0-.7 0-1.1 0-1.8c0-1.7 0-3.9-.1-6.5l.1.1c-2.1 0-4.5 0-7 0l.1-.1v.8 8.2l-.1-.1c1.3-.9 2.5-1.8 3.5-2.5h.1c1.6 1.3 2.6 2 3.4 2.6 0 0-.1 0-.2-.2-.2-.1-.4-.3-.7-.5-.7-.5-1.6-1.1-2.6-1.8h.1c-1 .7-2.2 1.6-3.5 2.5h-.1s0 0 0-.1c0-2.4 0-5.2 0-8.2 0-.3 0-.5 0-.8 0-.1 0-.1.1-.1h7c.1 0 .1 0 .1.1 0 2.6 0 4.8-.1 6.5v1.8c-.1.6-.1.8-.1.8z" fill="#263238"/><path d="m235.6 214.7c0 .1-15.3.3-34.2.3s-34.2-.1-34.2-.3c0-.1 15.3-.3 34.2-.3s34.2.2 34.2.3z" fill="#e0e0e0"/><path d="m235.6 224.1c0 .1-15.3.3-34.2.3s-34.2-.1-34.2-.3c0-.1 15.3-.3 34.2-.3 18.9.1 34.2.2 34.2.3z" fill="#e0e0e0"/><path d="m235.6 233.5c0 .1-15.3.3-34.2.3s-34.2-.1-34.2-.3c0-.1 15.3-.3 34.2-.3 18.9.1 34.2.2 34.2.3z" fill="#e0e0e0"/><path d="m235.6 242.9c0 .1-15.3.3-34.2.3s-34.2-.1-34.2-.3 15.3-.3 34.2-.3c18.9.1 34.2.2 34.2.3z" fill="#e0e0e0"/><path d="m202.9 252.4s-.5.1-1.4.1c-1 0-2.3 0-3.8.1-3.2 0-7.7.1-12.6.1s-9.4 0-12.6-.1c-1.5 0-2.8-.1-3.8-.1-.9 0-1.4-.1-1.4-.1s.5-.1 1.4-.1c1 0 2.3 0 3.8-.1 3.2 0 7.7-.1 12.6-.1s9.4 0 12.6.1c1.5 0 2.8.1 3.8.1.9 0 1.4 0 1.4.1z" fill="#e0e0e0"/><path d="m235.6 388.9c0 .1-15.3.3-34.2.3s-34.2-.1-34.2-.3 15.3-.3 34.2-.3c18.9.1 34.2.2 34.2.3z" fill="#e0e0e0"/><path d="m235.6 398.3c0 .1-15.3.3-34.2.3s-34.2-.1-34.2-.3 15.3-.3 34.2-.3c18.9.1 34.2.2 34.2.3z" fill="#e0e0e0"/><path d="m350.1 161.7s.1 0 .4-.1.6-.1 1.1-.2 1.1-.2 1.8-.4 1.5-.4 2.4-.7c3.6-1.1 8.8-3.1 14.4-7 5.5-3.9 11.4-9.8 15.3-17.9 4-8 6.2-18 4.9-28.3l.3.2c-.1 0-.1 0-.2 0-10.3 1.3-19.4 6.2-25.8 12.4-3.2 3.1-5.8 6.6-7.7 10.1-2 3.5-3.4 6.9-4.5 10.1-2.1 6.5-2.7 12-2.7 15.8 0 1 0 1.8.1 2.5 0 .7.1 1.4.2 1.8.1.5.1.9.1 1.1-.1.5-.1.6-.1.6s0-.1-.1-.4c0-.3-.1-.7-.2-1.1-.1-.5-.2-1.1-.2-1.8-.1-.7-.1-1.6-.1-2.5-.1-3.8.4-9.4 2.5-15.9 1.1-3.3 2.5-6.7 4.5-10.2s4.5-7 7.8-10.2c6.4-6.3 15.7-11.3 26.1-12.6h.2.3v.3c1.3 10.4-.9 20.5-5 28.6-2 4.1-4.5 7.6-7.2 10.6s-5.6 5.4-8.4 7.4c-5.6 3.9-10.9 5.9-14.5 6.9-3.6.7-5.7.9-5.7.9z" fill="#fafafa"/><path d="m379.2 123s-.1.2-.3.4c-.2.3-.5.7-.8 1.1-.8 1-1.9 2.4-3.2 4.1-2.7 3.4-6.5 8.2-10.7 13.4s-7.9 10-10.4 13.5c-1.3 1.8-2.3 3.3-2.9 4.3-.7 1-1.1 1.6-1.1 1.6s.1-.2.2-.4c.2-.3.4-.7.7-1.2.6-1.1 1.6-2.6 2.8-4.4 2.4-3.6 6.1-8.5 10.3-13.7s8-9.9 10.8-13.3c1.4-1.6 2.5-3 3.3-4 .4-.4.7-.8.9-1.1.3-.2.4-.3.4-.3z" fill="#fafafa"/><path d="m336.6 148.1s0-.1 0-.2c0-.2.1-.4.1-.7.1-.6.2-1.5.3-2.6.2-2.3.3-5.6-.6-9.6s-2.8-8.6-6.3-12.7-8.5-7.7-14.6-9.3l.3-.2v.1c-1.6 6-1 12.2.9 17.3s5.2 8.9 8.3 11.6 6 4.3 8.2 5.2c.5.2 1 .4 1.4.5.4.2.8.3 1.1.3.3.1.5.1.7.2s.2.1.2.1-1.3-.2-3.4-1c-2.2-.8-5.2-2.4-8.3-5.1s-6.5-6.5-8.5-11.7c-2-5.1-2.6-11.4-1-17.6v-.1l.1-.3.3.1c6.1 1.7 11.3 5.3 14.8 9.5 3.6 4.2 5.5 8.9 6.3 12.9.9 4.1.7 7.4.5 9.7-.1 1.1-.3 2-.4 2.6-.1.3-.1.5-.2.7s-.1.3-.2.3z" fill="#fafafa"/><path d="m321.9 122.8s.3.3.6 1c.4.7.9 1.6 1.6 2.7 1.3 2.3 3.1 5.5 5 9.1s3.7 6.7 5.1 9c.7 1.1 1.3 2 1.7 2.6s.6 1 .6 1-.3-.3-.8-.9-1.1-1.5-1.8-2.6c-1.5-2.2-3.3-5.4-5.2-8.9-1.9-3.6-3.6-6.8-4.9-9.1-.6-1.1-1-2-1.4-2.8-.4-.7-.5-1.1-.5-1.1z" fill="#fafafa"/><path d="m347.1 124.1s.5-.5 1.4-1.4 2-2.4 3-4.5 1.7-4.7 1.5-7.7c-.1-3-1.2-6.3-3.2-9l.4.1h-.1c-2.8 2.1-4.6 5-5.5 7.9s-.7 5.7-.3 7.9 1.2 4 1.8 5.1c.6 1 1 1.6 1 1.6s-.1-.1-.4-.4c-.2-.3-.5-.7-.9-1.2-.7-1.1-1.5-2.8-2-5.1s-.7-5.1.2-8.1c.8-3 2.7-6 5.6-8.2h.1l.2-.2.2.2c2.1 2.9 3.1 6.3 3.3 9.3.1 3.1-.6 5.8-1.6 7.9s-2.2 3.5-3.2 4.5c-.5.5-.8.8-1.1 1s-.4.3-.4.3z" fill="#fafafa"/><path d="m349.2 107.9c.1 0 0 .9-.2 2.4s-.5 3.5-.9 5.7-.7 4.2-.9 5.7-.3 2.4-.3 2.4c-.1 0-.1-.9 0-2.4s.3-3.5.7-5.8c.4-2.2.7-4.2 1-5.7s.5-2.4.6-2.3z" fill="#fafafa"/><path d="m372.5 162.7s.6.4 1.6 1.1c1.1.7 2.7 1.5 4.9 2s4.9.7 7.8-.1 5.8-2.4 8.1-5v.4h-.1c-2.5-2.3-5.8-3.5-8.7-3.8-3-.3-5.7.4-7.7 1.3-2.1.9-3.6 1.9-4.6 2.8-.8.8-1.3 1.4-1.3 1.3 0 0 .1-.2.3-.4.2-.3.5-.6 1-1.1.9-.9 2.4-2 4.6-3 2.1-.9 4.8-1.7 7.9-1.4 3.1.2 6.4 1.5 9 3.9h.1l.2.2-.2.2c-2.3 2.7-5.4 4.4-8.4 5.1-3 .8-5.8.6-8 0s-3.9-1.5-4.9-2.2c-.5-.4-.9-.7-1.2-.9s-.4-.4-.4-.4z" fill="#fafafa"/><path d="m388.6 161.6c0 .1-.9.2-2.4.3s-3.5.2-5.7.3-4.2.2-5.7.3-2.4.2-2.4.2c0-.1.9-.3 2.3-.5 1.5-.2 3.5-.4 5.7-.4 2.2-.1 4.3-.1 5.7-.1 1.6-.2 2.5-.2 2.5-.1z" fill="#fafafa"/><path d="m348.8 84.9s-.8-.3-2.4-.3-3.9.5-6.5 2c-1.3.8-2.6 1.8-4 3-1.3 1.2-2.7 2.7-4.1 4.3s-3 3.3-4.9 4.8-4.3 2.7-6.9 3.3c-2.7.6-5.5.6-8.5.1-2.9-.4-5.9-1.2-8.9-2.3-3-1-6-2.2-9.3-3.1-3.2-1-6.6-1.7-10.1-1.8s-7.2.8-10.2 2.9c-3.1 2-5.4 5.1-7.5 8.3s-4 6.7-6.3 10c-.6.8-1.2 1.6-1.9 2.4-.3.4-.7.7-1.1 1.1s-.7.7-1.1 1l-1.2 1c-.4.3-.9.5-1.3.8l-.7.4-.7.3-1.5.6c-4 1.3-8.3.5-12.1-.9s-7.1-3.7-10.3-5.8-6.4-4.2-9.8-5.6-7-2.3-10.5-2.7c-7-.8-13.9.1-19.8 2-3 .9-5.8 2.1-8.4 3.5s-5 2.9-7.2 4.4c-4.4 3.1-7.9 6.5-10.8 9.6s-5.1 6.1-6.9 8.5-3 4.4-3.8 5.8c-.4.7-.7 1.2-.9 1.5s-.3.5-.3.5.1-.2.3-.5c.2-.4.5-.9.9-1.6.8-1.4 2-3.4 3.8-5.8 1.7-2.5 4-5.4 6.8-8.6 2.9-3.2 6.4-6.6 10.8-9.7 2.2-1.6 4.6-3.1 7.2-4.5s5.4-2.6 8.5-3.5c6-1.9 12.9-2.9 20-2.1 3.5.4 7.1 1.3 10.6 2.7s6.7 3.5 9.9 5.6 6.5 4.3 10.2 5.8c3.7 1.4 7.8 2.1 11.7.9 3.9-1.3 6.9-4.1 9.2-7.4 2.3-3.2 4.2-6.7 6.3-9.9s4.4-6.4 7.6-8.5c3.1-2.2 6.9-3 10.5-2.9s7 .8 10.3 1.8c3.2 1 6.3 2.2 9.3 3.2s5.9 1.8 8.8 2.3c2.9.4 5.7.5 8.3-.1s4.9-1.7 6.8-3.2 3.5-3.1 4.9-4.7c1.5-1.6 2.8-3 4.1-4.3 1.4-1.2 2.7-2.2 4-3 2.6-1.5 5-2 6.6-1.9.4 0 .7 0 1 .1.3 0 .5.1.7.1.6.1.8.1.8.1z" fill="#fafafa"/><path d="m243.2 103.7s.1 0 .2-.1c.1 0 .4-.1.7-.1.6 0 1.4.2 2.3.8.8.6 1.8 1.6 1.9 3 .1.7 0 1.5-.4 2.2s-1 1.3-1.7 1.7c-1.4.8-3.3.7-4.3-.4s-1.1-2.5-.9-3.5.8-1.7 1.3-2.1c.2-.2.5-.3.6-.3s.2-.1.2 0-.3.1-.7.5c-.4.3-.9 1-1.1 2-.2.9 0 2.2.9 3.1s2.5 1 3.7.2c.6-.4 1.1-.9 1.5-1.4.3-.6.4-1.2.4-1.9-.1-1.3-.9-2.2-1.7-2.8s-1.6-.8-2.1-.9c-.4 0-.8.1-.8 0z" fill="#fafafa"/><path d="m166.9 267.9h71.3v69h-71.3z" fill="#f5f5f5"/><path d="m172.4 331.1 19.8-35.6 16.1 22.7 9.8-12 14.6 24.9z" fill="#e0e0e0"/><path d="m215.2 288.6c0 2.8-2.3 5.1-5.1 5.1s-5.1-2.3-5.1-5.1 2.3-5.1 5.1-5.1 5.1 2.3 5.1 5.1z" fill="#e0e0e0"/><path d="m232.7 331.3s0-.1 0-.3 0-.5 0-.8c0-.7 0-1.8 0-3.1 0-2.7 0-6.7-.1-11.7 0-10.1-.1-24.4-.1-41.7l.3.3c-17.5 0-38.2 0-60.3 0-.1.1.6-.6.3-.3v.1.1.2.5 1 2 3.9 7.7 14.9 27.2l-.3-.3c18 .1 33 .1 43.6.2 5.3 0 9.4.1 12.3.1h3.3.8c.1-.1.2-.1.2 0 0 0-.1 0-.3 0s-.5 0-.8 0c-.8 0-1.8 0-3.2 0-2.9 0-7 0-12.2.1-10.6 0-25.7.1-43.8.2h-.3v-.3c0-8.4 0-17.5 0-27.2 0-4.8 0-9.8 0-14.9 0-2.5 0-5.1 0-7.7 0-1.3 0-2.6 0-3.9v-2-1-.5-.2-.1-.1c-.3.3.4-.4.3-.3h60.3.3v.3c-.1 17.3-.1 31.7-.1 41.9 0 5-.1 8.9-.1 11.7v3.1.8c-.1 0-.1.1-.1.1z" fill="#e0e0e0"/><path d="m167.4 342.1h33.3v32.3h-33.3z" fill="#f5f5f5"/><path d="m170 371.6 9.2-16.6 7.5 10.6 4.6-5.6 6.9 11.6z" fill="#e0e0e0"/><path d="m190 351.8c0 1.3-1.1 2.4-2.4 2.4s-2.4-1.1-2.4-2.4 1.1-2.4 2.4-2.4 2.4 1.1 2.4 2.4z" fill="#e0e0e0"/><path d="m198.2 371.7s0 0 0-.1 0-.2 0-.4c0-.3 0-.8 0-1.5 0-1.3 0-3.1 0-5.5 0-4.7 0-11.4-.1-19.5l.1.1c-8.2 0-17.8 0-28.2 0 0 0 .3-.3.2-.2v.1.1.2.5.9 1.8 3.6 7 12.7l-.1-.1c8.4 0 15.4.1 20.4.1h5.7 1.5.4c0 .2.1.2.1.2s0 0-.1 0-.2 0-.4 0c-.4 0-.9 0-1.5 0-1.3 0-3.3 0-5.7 0-5 0-12 0-20.5.1h-.1v-.1c0-3.9 0-8.2 0-12.7 0-2.3 0-4.6 0-7 0-1.2 0-2.4 0-3.6 0-.6 0-1.2 0-1.8v-.9-.5-.2-.1-.1c-.1.1.2-.2.2-.2h28.2.1v.1c0 8.1-.1 14.8-.1 19.6v5.4 1.4.4c-.1.2-.1.2-.1.2z" fill="#e0e0e0"/><path d="m204.8 342.5h33v31.9h-33z" fill="#f5f5f5"/><path d="m207.3 371.7 9.1-16.5 7.5 10.5 4.5-5.5 6.8 11.5z" fill="#e0e0e0"/><path d="m227.1 352c0 1.3-1.1 2.4-2.4 2.4s-2.4-1.1-2.4-2.4 1.1-2.4 2.4-2.4c1.3.1 2.4 1.1 2.4 2.4z" fill="#e0e0e0"/><path d="m235.2 371.8s0 0 0-.1 0-.2 0-.4c0-.3 0-.8 0-1.4 0-1.3 0-3.1 0-5.4 0-4.7 0-11.3-.1-19.3l.1.1c-8.1 0-17.6 0-27.9 0 0 0 .3-.3.2-.2v.1.1.2.5.9 1.8 3.6 6.9 12.6l-.1-.1c8.3 0 15.3.1 20.2.1h5.7 1.5.4c-.1-.1 0-.1 0 0 0 0 0 0-.1 0s-.2 0-.4 0c-.3 0-.8 0-1.5 0-1.3 0-3.2 0-5.7 0-4.9 0-11.9 0-20.2.1h-.1v-.1c0-3.9 0-8.1 0-12.6 0-2.2 0-4.5 0-6.9 0-1.2 0-2.4 0-3.6 0-.6 0-1.2 0-1.8v-.9-.5-.2-.1-.1c-.1.1.2-.2.2-.2h27.9.1v.1c0 8-.1 14.7-.1 19.4v5.4 1.4.4c-.1.1-.1.2-.1.2z" fill="#e0e0e0"/><path d="m258.9 152.1v8.9h-1.7l-4.4-5.4v5.4h-2v-8.9h1.7l4.4 5.4v-5.4z" fill="#fff"/><path d="m260.7 152.1c0-.6.5-1.1 1.2-1.1s1.2.5 1.2 1.1c0 .7-.5 1.1-1.2 1.1s-1.2-.5-1.2-1.1zm.2 2h2v6.9h-2z" fill="#fff"/><path d="m264.3 157.6c0-2.1 1.6-3.5 3.8-3.5 1.4 0 2.6.6 3.1 1.7l-1.5.8c-.4-.6-.9-.9-1.5-.9-1 0-1.8.7-1.8 1.9s.8 1.9 1.8 1.9c.6 0 1.2-.3 1.5-.9l1.5.8c-.5 1.1-1.6 1.7-3.1 1.7-2.3 0-3.8-1.5-3.8-3.5z" fill="#fff"/><path d="m275.2 158.3-1 .9v1.7h-2v-9.5h2v5.4l2.9-2.8h2.4l-2.9 2.9 3.1 3.9h-2.4z" fill="#fff"/><path d="m287.6 157.1v3.9h-2v-3.6c0-1.1-.5-1.6-1.4-1.6-1 0-1.6.6-1.6 1.8v3.4h-2v-6.9h1.9v.8c.5-.6 1.3-.9 2.3-.9 1.6 0 2.8 1 2.8 3.1z" fill="#fff"/><path d="m295.5 157.1v3.9h-1.9v-.9c-.4.6-1.1 1-2.1 1-1.6 0-2.6-.9-2.6-2.1s.9-2.1 2.9-2.1h1.6c0-.9-.5-1.4-1.6-1.4-.7 0-1.5.2-2 .6l-.7-1.4c.8-.5 1.9-.8 3-.8 2.2.1 3.4 1.1 3.4 3.2zm-2 1.7v-.7h-1.4c-.9 0-1.2.3-1.2.8s.4.8 1.1.8c.7.1 1.3-.2 1.5-.9z" fill="#fff"/><path d="m308.8 157.1v3.9h-2v-3.6c0-1.1-.5-1.6-1.3-1.6-.9 0-1.5.6-1.5 1.8v3.4h-2v-3.6c0-1.1-.5-1.6-1.3-1.6-.9 0-1.5.6-1.5 1.8v3.4h-2v-6.9h1.9v.8c.5-.6 1.3-.9 2.2-.9 1 0 1.8.4 2.3 1.1.5-.7 1.4-1.1 2.5-1.1 1.6 0 2.7 1 2.7 3.1z" fill="#fff"/><path d="m317.4 158.1h-5.2c.2.9.9 1.4 2 1.4.7 0 1.2-.2 1.7-.7l1.1 1.1c-.6.7-1.6 1.1-2.8 1.1-2.4 0-3.9-1.5-3.9-3.5 0-2.1 1.6-3.5 3.7-3.5 2 0 3.6 1.4 3.6 3.6-.2.1-.2.4-.2.5zm-5.2-1.1h3.4c-.1-.9-.8-1.4-1.7-1.4-.9-.1-1.6.5-1.7 1.4z" fill="#fff"/><ellipse cx="271.8" cy="208.7" fill="#ebebeb" rx="12" ry="12" transform="matrix(.2286 -.9735 .9735 .2286 6.4668 425.6155)"/><path d="m271.4 220.2c-1.9.2-3.6-1.2-3.8-3.1l-1.1-10.6c-.3-2.9 1.8-5.4 4.7-5.6h.1c2.8 0 5.1 2.1 5.4 4.8.2 2.4.5 5.1.5 6.4 0 2.8-2.7 3.2-2.7 3.2s0 .5.1 1.1c.1 1.9-1.3 3.6-3.2 3.8z" fill="#ffbe9d"/><path d="m274.5 215.3s-1.7.1-3.6-1c0 0 .9 2 3.7 1.7z" fill="#eb996e"/><path d="m275.6 207.6c0 .2-.2.4-.4.4s-.4-.1-.4-.3.2-.4.4-.4c.2-.1.4.1.4.3z" fill="#263238"/><path d="m276.1 206.9c0 .1-.3-.2-.8-.2-.4 0-.7.2-.8.2 0 0 0-.1.2-.2.1-.1.4-.2.6-.2.3 0 .5.1.6.2.2.1.3.2.2.2z" fill="#263238"/><path d="m271.6 207.8c0 .2-.2.4-.4.4s-.4-.1-.4-.3.2-.4.4-.4c.2-.1.4.1.4.3z" fill="#263238"/><path d="m272 207.1c0 .1-.4-.2-.8-.2s-.7.2-.8.2c0 0 0-.1.2-.2.1-.1.4-.2.6-.2.3 0 .5.1.6.2.2 0 .2.1.2.2z" fill="#263238"/><path d="m273.6 210.2s.3-.1.7-.1c.1 0 .2 0 .2-.1s0-.2-.1-.3c-.1-.3-.2-.5-.3-.8-.5-1.2-.8-2.1-.8-2.1s.5.9.9 2.1c.1.3.2.6.3.8 0 .1.1.3.1.4s-.1.1-.2.2c-.1 0-.1 0-.2 0-.4-.1-.6-.1-.6-.1z" fill="#263238"/><path d="m272.3 210.5c.1 0 .1.5.5.8s.9.3.9.3-.1.1-.3.1-.5-.1-.7-.2c-.2-.2-.4-.5-.4-.7-.1-.2 0-.3 0-.3z" fill="#263238"/><path d="m272.1 205.4c0 .1-.5.1-1 .1-.5.1-.9.2-1 .1 0 0 0-.2.2-.3s.4-.2.7-.3c.3 0 .6 0 .8.1s.3.2.3.3z" fill="#263238"/><path d="m276 205.7c-.1.1-.4 0-.7 0-.4 0-.6.1-.7 0 0 0 0-.1.1-.2s.3-.2.6-.2c.2 0 .5.1.6.2.1 0 .1.1.1.2z" fill="#263238"/><path d="m269.5 203.4c0 .1 0 .1 0 0-.4.4-.7.9-.8 1.4v.1c-.1.8-.1 1.6-.2 2.4s0 1.4-.8 1.6c-.5.2-.9-.1-1.1-.3-.1-.1-.1-.2-.1-.4-.2-1.9-.6-2.6-.7-4.6 0-.5.2-1.1.7-1.4.4-.3.9-.6 1.4-.4s1.1 1.1 1.4 1.4" fill="#263238"/><path d="m267.5 207.8s-1.9-.5-1.8 1.4 2 1.4 2 1.3-.2-2.7-.2-2.7z" fill="#ffbe9d"/><path d="m267 209.8c-.1.1-.2.1-.3.1-.2-.1-.4-.4-.4-.7 0-.2 0-.3.1-.5.1-.1.1-.2.2-.3.1 0 .2 0 .2.1v.1s0 0 0-.1c0 0 0-.1-.1-.1 0 0-.1-.1-.2 0-.1 0-.3.2-.3.3-.1.2-.1.3-.1.5 0 .4.2.7.5.8.2 0 .3-.1.4-.2 0 0 .1 0 0 0z" fill="#eb996e"/><path d="m267.9 202.2c-.5-.7.8-1.9 1.7-2.2s2.2.1 3.1.4c.6.2 1.2.4 1.8.4.4 0 .8-.2 1.2-.3s.8-.3 1.2-.3.8.2 1 .6-.1.9-.5 1c.5-.3 1.3.1 1.4.7s-.5 1.2-1.1 1.1c.3-.2.7.1.7.5 0 .3-.3.6-.6.7-.8.4-1.7.3-2.5 0s-1.6-.7-2.4-1-2.2-.8-3-.5c-.6.2-1 .9-1.3.8s-.5-.5-.6-.8c-.2-.4-.2-.8-.1-1.1" fill="#263238"/><path d="m277.6 201.8s-.1.1-.3.4c-.2.2-.5.5-1 .7s-1.2.2-1.8 0c-.6-.3-1.2-.8-1.8-1.4-.6-.5-1.4-.9-2.1-1s-1.4.2-1.8.7c-.4.4-.4.9-.4 1.2 0 .2.1.3.1.3 0 .1.1.1.1.1s-.1-.2-.1-.5.1-.7.4-1.1c.4-.4 1-.6 1.7-.6.7.1 1.4.4 2 1 .6.5 1.2 1.1 1.9 1.4s1.4.2 1.9 0 .9-.5 1-.8c.1-.1.2-.2.2-.3s0-.1 0-.1z" fill="#455a64"/><path d="m267 207.7s.1-.1.1-.2c.1-.1.1-.4.1-.7-.1-.6-.6-1.2-.7-2.1 0-.4 0-.8.2-1.1s.4-.5.7-.6c.2-.1.5-.1.6-.1.2 0 .2.1.2 0 0 0-.1-.1-.2-.1-.2 0-.4-.1-.7 0s-.6.3-.8.7c-.2.3-.3.8-.2 1.2 0 .4.2.8.4 1.2.2.3.3.6.4.9.1.6-.1.9-.1.9z" fill="#455a64"/><path d="m265 218.5 2.6-1.8c2.5.8 4.8.8 7-.3l4.4 1.9s-2.7 2.5-7.2 2.4c-4.4-.1-6.8-2.2-6.8-2.2z" fill="#455a64"/><circle cx="204.2" cy="155.3" fill="#ebebeb" r="33.8"/><path d="m203.2 187.8c-5.4.5-10.3-3.4-10.8-8.8l-3-29.9c-.8-8.1 5.2-15.2 13.3-15.8h.2c7.9-.1 14.5 5.8 15.3 13.6.7 6.9 1.3 14.3 1.3 18 0 7.8-7.7 9.1-7.7 9.1s.1 1.3.3 3.1c.4 5.3-3.5 10.2-8.9 10.7z" fill="#ffbe9d"/><path d="m211.7 174s-4.9.4-10.2-2.8c0 0 2.6 5.5 10.4 4.7z" fill="#eb996e"/><path d="m215.1 152.1c0 .6-.4 1.1-1.1 1.1-.6 0-1.1-.4-1.2-1 0-.6.4-1.1 1.1-1.1.6 0 1.1.4 1.2 1z" fill="#263238"/><path d="m216.5 150.2c-.1.1-1-.5-2.2-.4-1.2 0-2.1.6-2.2.5s.1-.3.4-.6c.4-.3 1-.6 1.8-.6.7 0 1.4.3 1.7.5.4.3.5.5.5.6z" fill="#263238"/><path d="m203.6 152.6c0 .6-.4 1.1-1.1 1.1-.6 0-1.1-.4-1.2-1 0-.6.4-1.1 1.1-1.1s1.2.4 1.2 1z" fill="#263238"/><path d="m204.7 150.6c-.1.1-1-.5-2.2-.4-1.2 0-2.1.6-2.2.5s.1-.3.4-.6c.4-.3 1-.6 1.8-.6.7 0 1.4.3 1.7.5.5.3.6.5.5.6z" fill="#263238"/><path d="m209.2 159.4c0-.1.7-.2 1.9-.4.3 0 .6-.1.6-.3.1-.2-.1-.5-.2-.9-.3-.7-.6-1.5-.9-2.3-1.3-3.3-2.3-6-2.1-6 .1-.1 1.3 2.6 2.6 5.9.3.8.6 1.6.9 2.3.1.3.3.7.2 1.2-.1.2-.3.4-.5.5s-.4.1-.5.1c-1.2 0-2 0-2-.1z" fill="#263238"/><path d="m205.7 160.3c.2 0 .2 1.3 1.3 2.2s2.5.7 2.5.9c0 .1-.3.3-.9.3s-1.4-.1-2.1-.7-1-1.3-1-1.8c0-.6.1-.9.2-.9z" fill="#263238"/><path d="m205 145.9c-.1.3-1.3.2-2.7.4s-2.5.6-2.7.3c-.1-.1.1-.4.6-.8.4-.3 1.2-.6 2-.7s1.6 0 2.1.2c.4.2.7.5.7.6z" fill="#263238"/><path d="m216 146.7c-.2.3-1 0-2 0s-1.8.2-2-.1c-.1-.1 0-.4.4-.7s1-.5 1.6-.5c.7 0 1.3.2 1.6.5.4.4.5.7.4.8z" fill="#263238"/><path d="m197.7 140.4s0 .1 0 0c-1.3 1-2.1 2.5-2.3 4v.2c-.3 2.2-.2 4.5-.5 6.7s0 3.9-2.2 4.6c-1.3.4-2.6-.2-3.2-.9-.2-.3-.3-.7-.3-1-.5-5.4-1.8-7.3-1.9-12.9 0-1.5.7-3 1.9-3.9s2.6-1.8 3.9-1.2 3 3 4.1 4" fill="#263238"/><path d="m192.1 152.6c-.1-.1-5.4-1.5-5.1 3.8s5.5 4 5.5 3.8c0-.1-.4-7.6-.4-7.6z" fill="#ffbe9d"/><path d="m190.8 158.3s-.1.1-.2.1c-.1.1-.4.1-.7 0-.6-.2-1.1-1-1.2-2 0-.5 0-.9.2-1.3.1-.4.4-.7.7-.7.3-.1.5.1.6.2s0 .3.1.3c0 0 .1-.1.1-.3 0-.1-.1-.2-.2-.3s-.3-.1-.5-.1c-.4 0-.8.4-.9.9-.2.4-.3 1-.2 1.5.1 1.1.7 2 1.5 2.2.4.1.7 0 .8-.2-.1-.2-.1-.3-.1-.3z" fill="#eb996e"/><path d="m193.1 136.8c-1.3-2.1 2.2-5.2 4.8-6.1s6.1.4 8.7 1.2c1.7.5 3.3 1.3 5 1.2 1.2-.1 2.3-.5 3.4-.9s2.2-.8 3.4-.7 2.4.7 2.8 1.7c.5 1.1-.1 2.6-1.3 2.7 1.5-.8 3.6.2 3.9 1.9s-1.4 3.3-3.1 3c.7-.6 1.9.3 1.8 1.3-.1.9-.9 1.6-1.8 2-2.2 1-4.8.7-7.1 0s-4.5-1.9-6.7-2.7c-2.3-.8-6.1-2.2-8.4-1.4-1.7.6-2.8 2.7-3.8 2.2-.9-.4-1.5-1.4-1.7-2.4-.1-.9 0-2 .1-3" fill="#263238"/><path d="m220.6 135.7s-.3.4-.8 1c-.6.6-1.5 1.4-2.9 2-1.4.5-3.3.7-5.1-.1s-3.4-2.4-5.2-3.9-3.9-2.6-6-2.8-4 .6-5.1 1.8-1.2 2.6-1.2 3.5c0 .4.2.8.2 1 .1.2.2.3.2.3s-.2-.5-.2-1.3.2-2.1 1.2-3.2 2.8-1.8 4.7-1.6c2 .2 4 1.2 5.7 2.7 1.8 1.5 3.4 3.1 5.3 3.9 1.9.9 4 .6 5.4 0 1.5-.6 2.4-1.5 2.9-2.2.3-.3.4-.6.5-.8.4-.2.4-.3.4-.3z" fill="#455a64"/><path d="m190.7 152.4s.2-.2.4-.6.3-1.1.2-1.9c-.1-1.7-1.7-3.5-1.9-5.9-.1-1.2 0-2.3.5-3.2s1.3-1.4 1.9-1.7c.7-.3 1.3-.3 1.8-.3.4.1.7.2.7.1 0 0-.2-.2-.6-.3s-1.2-.2-1.9.1c-.8.3-1.7.9-2.2 1.8-.6 1-.8 2.2-.6 3.5.1 1.3.6 2.4 1.1 3.3s.9 1.8 1 2.6c.2 1.6-.4 2.5-.4 2.5z" fill="#455a64"/><path d="m184.9 183 7.4-5c7 2.4 13.6 2.3 19.7-1l12.4 5.3s-7.7 6.9-20.2 6.7c-12.5-.1-19.3-6-19.3-6z" fill="#455a64"/><path d="m238 155.3s0-.2-.1-.5c0-.4-.1-.9-.1-1.6 0-.4 0-.7-.1-1.2 0-.4-.1-.9-.2-1.4-.2-1-.3-2.2-.7-3.5-.6-2.6-1.8-5.7-3.7-8.9s-4.7-6.6-8.5-9.5-8.6-5.3-14.1-6.3c-1.4-.2-2.8-.5-4.2-.5-.7 0-1.5-.1-2.2-.1s-1.5.1-2.2.1c-.4 0-.7 0-1.1.1l-1.1.2c-.7.1-1.5.2-2.3.4-1.5.4-3 .7-4.5 1.3-1.5.5-2.9 1.2-4.4 1.9-.7.4-1.4.8-2.1 1.2s-1.4.9-2 1.4c-1.4.9-2.6 2.1-3.8 3.2-1.1 1.2-2.3 2.5-3.3 3.9-2 2.8-3.7 5.8-4.8 9.2s-1.7 6.9-1.7 10.6c0 3.6.6 7.2 1.7 10.6s2.8 6.5 4.8 9.2c1 1.4 2.2 2.6 3.3 3.9 1.2 1.1 2.4 2.3 3.8 3.2.7.5 1.3 1 2 1.4s1.4.9 2.1 1.2c1.5.7 2.9 1.4 4.4 1.9 1.5.6 3 .9 4.5 1.3.8.2 1.5.2 2.3.4l1.1.2c.4 0 .7 0 1.1.1.7 0 1.5.1 2.2.1s1.5-.1 2.2-.1c1.5 0 2.9-.3 4.2-.5 5.5-1 10.3-3.4 14.1-6.3s6.6-6.3 8.5-9.5c1.9-3.3 3.1-6.3 3.7-8.9.4-1.3.5-2.5.7-3.5.1-.5.2-1 .2-1.4s.1-.8.1-1.2c0-.7.1-1.2.1-1.6 0-.3.1-.5.1-.5s0 .2 0 .5c0 .4 0 .9-.1 1.6v1.2c0 .4-.1.9-.2 1.4-.1 1-.3 2.2-.7 3.5-.6 2.6-1.8 5.7-3.7 9s-4.7 6.7-8.6 9.7c-3.8 2.9-8.7 5.4-14.3 6.4-1.4.2-2.8.5-4.3.5-.7 0-1.5.1-2.2.1s-1.5-.1-2.2-.1c-.4 0-.8 0-1.1-.1l-1.1-.2c-.8-.1-1.5-.2-2.3-.4-1.5-.4-3.1-.7-4.5-1.3-1.5-.5-3-1.2-4.4-1.9-.7-.4-1.4-.8-2.1-1.3-.7-.4-1.4-.9-2.1-1.4-1.4-.9-2.6-2.1-3.9-3.3-1.1-1.3-2.3-2.5-3.3-3.9-2-2.8-3.8-5.9-4.9-9.4-1.1-3.4-1.7-7-1.8-10.7 0-3.7.6-7.3 1.8-10.7 1.1-3.4 2.8-6.6 4.9-9.4 1-1.4 2.2-2.7 3.3-3.9 1.3-1.1 2.5-2.3 3.9-3.3.7-.5 1.3-1 2.1-1.4.7-.4 1.4-.9 2.1-1.3 1.5-.7 2.9-1.5 4.4-1.9 1.5-.6 3-.9 4.5-1.3.8-.2 1.5-.2 2.3-.4l1.1-.2c.4 0 .8 0 1.1-.1.8 0 1.5-.1 2.2-.1s1.5.1 2.2.1c1.5 0 2.9.3 4.3.5 5.6 1 10.4 3.5 14.3 6.4 3.8 2.9 6.6 6.4 8.6 9.7 1.9 3.3 3.1 6.4 3.7 9 .4 1.3.5 2.5.7 3.5.1.5.2 1 .2 1.4v1.2c0 .7 0 1.2.1 1.6z" fill="#263238"/><path d="m64.6 425.2-13 19.5-5.8 18.3c-.4 1.3-1.9 2-3.2 1.5-.7-.3-1.3-.9-1.4-1.6-1.2-4.8-5.5-22.5-4.4-23.8 1.2-1.6 12.3-21.4 12.3-21.4z" fill="#e8505b"/><path d="m42.7 464.5-5-26.8-.5.8c-.5.7-.6 1.6-.5 2.4.3 2.3 1.3 8.5 4.6 21.9.1.8.6 1.4 1.4 1.7z" fill="#fff" opacity=".6"/><path d="m45.7 433.8c.3.7 0 1.5-.7 1.8-.6.3-1.5 0-1.8-.7s.1-1.7.7-1.9c.7-.2 1.7.2 1.8.9" fill="#fff" opacity=".6"/><path d="m43.6 453c.1.1 1.2-.6 2.7-.4 1.5.1 2.4 1.1 2.5 1 0 0-.1-.3-.5-.7s-1.1-.7-2-.8c-.8-.1-1.6.1-2.1.4-.4.2-.6.4-.6.5z" fill="#263238"/><path d="m43.4 456.5c0 .1 1.1-.1 2.3.3 1.2.3 2 1.1 2.1 1s-.6-1.1-1.9-1.5c-1.5-.4-2.6.1-2.5.2z" fill="#263238"/><path d="m43.2 447.9c0 .2 1.6-.2 3.6.2 1.9.4 3.3 1.3 3.4 1.2s-1.2-1.3-3.3-1.7c-2.2-.4-3.8.2-3.7.3z" fill="#263238"/><path d="m46.6 441.7c0 .2 1.4.4 2.8 1.2 1.5.8 2.4 1.9 2.5 1.8s-.7-1.4-2.2-2.3c-1.6-.8-3.1-.8-3.1-.7z" fill="#263238"/><path d="m50.3 435.9c0 .2 1.5.2 3 1.2s2.1 2.4 2.2 2.3c.1 0 0-.4-.3-1-.3-.5-.8-1.2-1.6-1.8-.8-.5-1.6-.8-2.3-.9-.7 0-1.1.1-1 .2z" fill="#263238"/><path d="m53.9 436s.2-.2.5-.7.6-1.3.6-2.3c0-.5.1-1.1-.3-1.7-.2-.3-.6-.5-1-.4s-.7.4-.9.7c-.8 1.3-.5 3.2.8 4.2 1.3 1.1 3.1 1.1 4.4.3.3-.2.6-.5.7-.9s-.3-.8-.6-1c-.6-.3-1.2-.2-1.7-.1-1 .1-1.8.4-2.3.7s-.8.5-.7.5c0 .1 1.1-.7 3.1-.8.5 0 1.1-.1 1.5.2.2.1.3.3.3.5s-.2.4-.5.6c-1 .6-2.7.6-3.8-.3s-1.4-2.6-.8-3.6c.2-.2.4-.4.6-.5s.4 0 .6.2c.3.4.3 1 .3 1.5-.1 1.8-.9 2.8-.8 2.9z" fill="#263238"/><path d="m76.9 436.3 1.5 19.5s-19.4 6.6-19.5 10.3l38-.1-1.1-30.5z" fill="#e8505b"/><path d="m90 453.7c.7.2 1.3 1 1.1 1.7-.1.7-1 1.3-1.7 1.1s-1.4-1.1-1.2-1.8 1.2-1.3 1.9-1" fill="#fff" opacity=".6"/><path d="m96.9 466-.1-3.1-36.7 1.4s-1.2.5-1.4 2.1z" fill="#fff" opacity=".6"/><path d="m77.7 455.7c0 .2.9.2 1.9.8 1 .5 1.5 1.3 1.6 1.2.2 0-.2-1.1-1.3-1.8s-2.2-.4-2.2-.2z" fill="#263238"/><path d="m73.8 457.5c0 .2.8.5 1.4 1.2.7.7.9 1.6 1.1 1.6s.3-1.1-.6-2c-.8-1-1.9-1-1.9-.8z" fill="#263238"/><path d="m71.8 462.3c.2 0 .4-.9-.1-1.9s-1.4-1.4-1.5-1.2.5.7.9 1.5.5 1.6.7 1.6z" fill="#263238"/><path d="m77.9 451.2c.1.2.9-.1 2-.1s1.9.3 2 .2-.7-.8-2-.8c-1.2-.1-2.1.5-2 .7z" fill="#263238"/><path d="m77.2 440.2.2 3.4 18.7-.9-.1-3.1z" opacity=".3"/><path d="m77.7 447.2c0 .1.7.2 1.9-.1.6-.1 1.3-.3 2-.7.4-.2.7-.4 1.1-.6.2-.1.4-.2.6-.5.2-.2.3-.7 0-1-.2-.3-.6-.4-.8-.4-.3 0-.5.1-.7.1-.4.1-.8.3-1.2.5-.7.4-1.3.8-1.7 1.2-.8.9-1.1 1.6-1.1 1.6.1.1.5-.5 1.4-1.2.4-.4 1-.7 1.7-1 .3-.1.7-.3 1.1-.4s.7-.1.9 0v.2c-.1.1-.2.2-.4.3-.3.2-.7.4-1 .6-.6.4-1.3.6-1.8.8-1.3.4-2 .5-2 .6z" fill="#263238"/><path d="m77.9 447.5c.1 0 .4-.7.4-1.9 0-.6-.1-1.3-.3-2.1-.1-.4-.3-.8-.5-1.1-.2-.4-.5-.9-1.3-.9-.4 0-.7.3-.8.6s-.1.5-.2.7c-.1.4 0 .9 0 1.3.2.8.5 1.5.9 1.9.8 1 1.6 1.1 1.6 1.1.1-.1-.6-.4-1.2-1.4-.3-.5-.6-1.1-.7-1.8-.1-.4-.1-.7 0-1.1 0-.4.2-.7.3-.7.2 0 .5.3.7.6s.4.7.5 1c.3.7.4 1.3.4 1.9.3 1.2.1 1.9.2 1.9z" fill="#263238"/><path d="m122.5 287c1.4 16.3 4.3 33.3 5.7 49.7.3 3 .5 6.1-.5 8.9-1.8 5.2-13.3 8.9-18.6 7.3" fill="#455a64"/><path d="m63 275.4s-8.8 21.5-8.8 24.5c0 2.9 18.4 142.1 18.4 142.1l25.7-2.2-11.3-127.7 4-27.3z" fill="#263238"/><path d="m121.8 284.4s-6 50.1-8.8 69.5c-3 20.2-8.7 24-8.7 24l-46.4 59.4-18.2-16.4 40.9-65.5s10.9-72.7 10.5-70.7 30.7-.3 30.7-.3z" fill="#263238"/><path d="m87.6 314.5v.2c0 .2 0 .4-.1.6-.1.6-.2 1.3-.4 2.3-.3 2-.8 4.9-1.4 8.5-1.2 7.3-3 17.5-5 29.4-2.9 4.7-6.1 9.8-9.4 15.1-8.7 13.9-16.6 26.5-22.3 35.6-2.9 4.5-5.2 8.2-6.8 10.8-.8 1.2-1.4 2.2-1.9 2.9-.2.3-.4.6-.5.7-.1.2-.2.3-.2.2 0 0 0-.1.1-.3s.3-.5.5-.8c.4-.7 1-1.7 1.8-3 1.6-2.6 3.9-6.3 6.7-10.8 5.7-9.2 13.5-21.7 22.2-35.7 3.3-5.3 6.5-10.4 9.5-15.1v.1c2.1-11.9 3.9-22.1 5.2-29.4.7-3.6 1.2-6.5 1.5-8.5.2-1 .3-1.7.4-2.3 0-.2.1-.4.1-.6z" fill="#455a64"/><path d="m103.3 378.7s-.1.2-.4.6-.8 1-1.3 1.7c-1.2 1.5-2.8 3.7-4.9 6.3-4.1 5.4-9.7 12.7-15.9 20.8-6.2 8.2-11.9 15.5-16 20.8-2.1 2.6-3.8 4.7-5 6.2-.6.7-1 1.2-1.4 1.6-.3.4-.5.6-.5.6s.1-.2.4-.6.8-1 1.3-1.7c1.2-1.5 2.8-3.7 4.9-6.3 4.1-5.4 9.7-12.7 15.9-20.8 6.2-8.2 11.9-15.5 16-20.8 2.1-2.6 3.8-4.7 5-6.2.6-.7 1-1.2 1.4-1.6.3-.4.5-.6.5-.6z" fill="#455a64"/><path d="m77.1 184.4s-9 5.4-11.7 10.2-17.1 39.8-16.5 45.5 14.1 9.3 14.1 9.3l14.1-18.3-8.4-5.7 8.4-10.5z" fill="#e8505b"/><path d="m91.6 179.8-14.5 4.7s-6.6 62.6-9.9 71.6-4.2 19.5-4.2 19.5 1.9 17.5 22.2 19.9c20.4 2.4 36.6-9.7 36.6-9.7s12.2-30.9 15.8-57.2c3.6-26.4 1.1-41.4 1.1-41.4l-22.3-8z" fill="#e8505b"/><path d="m134.6 188.9c-.6.6-9.6 6.6-12.6 16.8s-6.3 20.7-6.3 20.7l-11.7 1.5 6.6 26.9s14.1-1.5 21.9-14.4 12.6-28.7 12.6-28.7-1-32.7-10.5-22.8z" fill="#e8505b"/><path d="m63 249.4s32.6 6.5 44.5-7.5l-3.5-11.9s-21.6 5.1-28.3 2.9z" fill="#ffbe9d"/><path d="m108 227.3s5-11.1 5.6-11.2c.7-.1 10.2-3.5 10.2-3.5s.5 1.3 0 2.4l3.4.4s-.5 2.1-1.7 2.4l1.2 1.1s-1 1.4-2.3 2-2.3 0-2.3 0 .4.8-1.5 2c-2 1.2-5.3 3.1-5.3 3.1z" fill="#ffbe9d"/><path d="m108 227.4c.2-.5 5-11.1 5.7-11.3.6-.1 10.1-3.5 10.2-3.5s.5 1.3 0 2.4l3.4.4c0 .1-.5 2.1-1.7 2.4l1.2 1.1s-1 1.4-2.3 2c-1.1.5-2 .1-2.2 0 .1.2.1 1-1.6 2-2 1.2-5.3 3.1-5.3 3.1zm15.9-14.8c-.5.2-9.6 3.4-10.2 3.5-.5.1-3.9 7.3-5.6 11.2l7.3-1.3c.1-.1 3.4-1.9 5.3-3.1s1.5-2 1.5-2v-.1h.1s1 .6 2.2 0c1.2-.5 2.2-1.8 2.3-2l-1.3-1.1c1.1-.3 1.6-2.1 1.7-2.4l-3.4-.4c.5-.9.1-2.1.1-2.3z" fill="#eb996e"/><path d="m123.6 215c0 .1-2.8 1.2-6.3 2.4-.9.3-1.7.6-2.4.9s-1.1.9-1.4 1.4c-.6 1-.8 1.8-.9 1.7 0 0 0-.8.5-1.9.3-.6.8-1.2 1.5-1.6.8-.4 1.6-.6 2.5-.9 3.6-1.2 6.4-2.1 6.5-2z" fill="#eb996e"/><path d="m125.8 217.8c0 .1-.6.3-1.7.6s-2.6.5-4.3 1c-1.6.4-3 1.1-3.9 1.8s-1.3 1.3-1.3 1.2c0 0 .2-.7 1.1-1.5.8-.8 2.3-1.6 4-2 1.7-.5 3.2-.6 4.3-.8s1.8-.3 1.8-.3z" fill="#eb996e"/><path d="m117 222.9c-.1-.1.8-1 2.3-1.6 1.5-.5 2.8-.4 2.8-.3 0 .2-1.2.2-2.6.7-1.4.6-2.4 1.3-2.5 1.2z" fill="#eb996e"/><path d="m105 230.7-27.3-7.6-8.1 8.9s27.8 21.8 40.5 21.4" fill="#ffbe9d"/><path d="m110.1 253.4s-1.2.2-3.4-.2-5.2-1.4-8.8-3c-7.2-3.3-16.4-9-26.1-16.2-.8-.6-1.6-1.2-2.4-1.8l-.2-.2.2-.2c2.9-3.1 5.6-6.1 8.2-8.9l.1-.1h.1c8 2.3 14.8 4.2 19.6 5.6 2.4.7 4.3 1.3 5.6 1.6.6.2 1.1.3 1.5.5.3.1.5.2.5.2s-.2 0-.5-.1c-.4-.1-.9-.2-1.5-.4-1.4-.4-3.3-.9-5.7-1.5-4.9-1.3-11.7-3.2-19.7-5.4l.2-.1c-2.5 2.8-5.3 5.8-8.1 8.9v-.4c.8.6 1.6 1.2 2.4 1.8 9.6 7.1 18.8 12.9 25.9 16.3 3.5 1.7 6.6 2.7 8.7 3.1.5.1 1 .2 1.4.3s.8.1 1.1.1c.6.1.9.1.9.1z" fill="#eb996e"/><path d="m122.9 199.6c.1 0-.1.8-.4 2.2-.3 1.3-.8 3.2-1.3 5.2s-1.1 3.8-1.5 5.1-.7 2.1-.8 2.1.1-.9.4-2.2.8-3.2 1.3-5.2 1.1-3.8 1.5-5.1c.5-1.3.8-2.1.8-2.1z" fill="#263238"/><path d="m121.7 236.1c-.1 0-.4-1.4-1-3.5-.4-1-.9-2.3-1.8-3.4s-2.2-2.2-3.8-2.4-3.2.3-4.7.5c-1.4.3-2.7.5-3.9.8-.6.1-1 .2-1.4.4s-.6.5-.7.7c-.2.6.1.9 0 .9 0 0-.4-.3-.2-.9.1-.3.4-.7.8-.9s.9-.3 1.5-.5c1.1-.3 2.4-.6 3.8-.9s3-.8 4.8-.6c1.8.3 3.2 1.4 4.1 2.6s1.4 2.5 1.7 3.6.5 2 .6 2.6c.2.7.2 1 .2 1z" fill="#263238"/><path d="m125.7 230.2c-.1.1-.9-2.1-3.2-3.7-2.2-1.6-4.5-1.8-4.5-2 0-.1.6-.1 1.5.1s2.1.6 3.3 1.4 2 1.9 2.4 2.7c.4.9.5 1.5.5 1.5z" fill="#263238"/><path d="m145.1 211.7s0 .2-.2.6c-.1.4-.3 1-.5 1.6-.5 1.5-1.2 3.5-2 5.9-.9 2.5-1.9 5.5-3.4 8.7s-3.2 6.6-5.3 10.1-4.6 6.5-7.3 8.7c-2.7 2.3-5.5 3.9-7.9 4.9-2.5 1-4.6 1.5-6 1.7-.7.1-1.3.1-1.7.2-.4 0-.6 0-.6 0 0-.1.8-.1 2.3-.4 1.4-.3 3.5-.8 5.9-1.8 4.8-2.1 10.9-6.6 14.9-13.6 2.1-3.4 3.7-6.9 5.3-10 1.5-3.2 2.5-6.1 3.4-8.6s1.6-4.5 2.2-5.9c.3-.6.5-1.2.6-1.6.2-.4.2-.5.3-.5z" fill="#263238"/><path d="m136.6 189.6c.1.1-2.2 1-4.8 2.5s-4.4 3.1-4.5 3 1.6-1.9 4.2-3.5c2.7-1.5 5.1-2.1 5.1-2z" fill="#263238"/><path d="m76 212.2c-.1 0 .2-2.3.8-5.1s1.2-5 1.3-5-.2 2.3-.8 5.1-1.1 5-1.3 5z" fill="#263238"/><path d="m114.3 261.2s-.5.3-1.5.8c-.5.2-1.1.5-1.8.8s-1.5.6-2.5.9c-1.8.7-4.1 1.3-6.6 1.9s-5.3 1-8.3 1.3-5.8.3-8.4.2-4.9-.4-6.8-.7c-1-.1-1.8-.3-2.6-.5-.8-.1-1.4-.3-1.9-.5-1.1-.3-1.6-.4-1.6-.5 0 0 .6.1 1.7.3.5.1 1.2.2 1.9.4.8.1 1.6.3 2.6.4 1.9.3 4.2.5 6.8.6s5.4 0 8.3-.2c2.9-.3 5.7-.7 8.2-1.3s4.7-1.2 6.6-1.8c.9-.3 1.7-.6 2.5-.9.7-.3 1.3-.5 1.8-.7 1-.4 1.6-.6 1.6-.5z" fill="#263238"/><path d="m90.4 276.5c0 .1-2.7-.4-6-1.5-3.2-1.1-5.7-2.3-5.7-2.4.1-.1 2.6.8 5.8 1.9 3.3 1 5.9 1.8 5.9 2z" fill="#263238"/><path d="m68.1 251.9c3.1 2.4 7.1 3.7 11 3.7 3.6-.1 7.1-1.2 10.7-1.1 2.8.1 5.6.9 8.3 1.7 4.6 1.2 9.3 2.1 14 1.3s9.2-3.5 11.1-7.8c-6.2 4.3-14.6 5.2-21.5 2.2-1.9-.8-3.8-1.9-5.9-2.2-2.5-.4-5 .4-7.5.9-6.9 1.4-14 .3-21-.9" opacity=".3"/><path d="m79.5 273.6c3 5.1 8.5 8.5 14.3 9.1 1.3.1 2.6.1 3.8-.3s2.3-1.2 2.9-2.4c-1.3-1-2.9-1.4-4.5-1.8-5.4-1.5-10.9-3-16.3-4.5" opacity=".3"/><path d="m99.2 226c-.1 0-2.2-5.3-4.6-11.9s-4.3-12-4.1-12.1c.1 0 2.2 5.3 4.6 11.9 2.4 6.7 4.3 12.1 4.1 12.1z" fill="#fafafa"/><path d="m110 199.4c.1.1-5.6 5.3-12.8 11.6-7.1 6.3-13 11.3-13.1 11.2s5.6-5.3 12.8-11.6c7.1-6.3 13-11.3 13.1-11.2z" fill="#fafafa"/><path d="m103.8 191.2c6.3 0 11.3-5.1 11.3-11.3v-34.5c0-9.3-7.6-16.8-17-16.6h-.3c-9 .7-15.9 8.3-15.9 17.3 0 7.9.1 16.5.5 20.7.8 8.9 9.9 9.6 9.9 9.6s0 1.5 0 3.5c.2 6.3 5.2 11.3 11.5 11.3z" fill="#ffbe9d"/><path d="m92.4 176.3s5.7 0 11.3-4.3c0 0-2.2 6.6-11.2 6.6z" fill="#eb996e"/><path d="m85 152.5c0 .7.6 1.2 1.3 1.2s1.2-.6 1.2-1.3-.6-1.2-1.3-1.2-1.3.6-1.2 1.3z" fill="#263238"/><path d="m84.3 149.7c.2.2 1.1-.6 2.4-.8 1.4-.1 2.4.5 2.6.3.1-.1-.1-.4-.6-.6-.5-.3-1.2-.5-2.1-.5-.9.1-1.5.4-1.9.8-.4.5-.5.8-.4.8z" fill="#263238"/><path d="m98.1 151.9c0 .7.6 1.2 1.3 1.2s1.2-.6 1.2-1.3-.6-1.2-1.3-1.2-1.3.6-1.2 1.3z" fill="#263238"/><path d="m97.8 148.9c.2.2 1.1-.6 2.4-.8 1.4-.1 2.4.5 2.6.3.1-.1-.1-.4-.6-.6-.5-.3-1.2-.5-2.1-.5-.9.1-1.5.4-1.9.8s-.5.7-.4.8z" fill="#263238"/><path d="m93.7 159.5c0-.1-.9-.2-2.3-.2-.4 0-.7 0-.8-.3-.1-.2 0-.6.1-1.1.3-.9.5-1.8.8-2.7 1.1-3.9 1.9-7.1 1.7-7.2-.2 0-1.2 3.1-2.3 7-.3 1-.5 1.9-.8 2.8-.1.4-.3.9-.1 1.4.1.3.4.4.6.5h.6c1.6-.1 2.5-.2 2.5-.2z" fill="#263238"/><path d="m97.8 160.1c-.2 0-.1 1.5-1.3 2.7s-2.8 1.1-2.8 1.3c0 .1.4.3 1 .2.7 0 1.6-.3 2.3-1s1-1.6 1-2.2c.1-.7-.1-1-.2-1z" fill="#263238"/><path d="m97 143.6c.2.4 1.5.1 3.1.1s3 .4 3.1 0c.1-.2-.2-.5-.7-.8s-1.4-.6-2.4-.6-1.8.2-2.4.5c-.5.3-.8.6-.7.8z" fill="#263238"/><path d="m84.5 145.7c.3.3 1.2-.1 2.3-.2s2.1 0 2.3-.3c.1-.2-.1-.5-.5-.7-.4-.3-1.1-.4-1.9-.4-.8.1-1.4.4-1.8.8s-.5.7-.4.8z" fill="#263238"/><path d="m104.6 136.5c.1 0 .1 0 0 0 1.6 1 2.6 2.6 3 4.4v.2c.6 2.5.7 5.1 1.3 7.6s.5 4.4 3 5c1.6.4 2.9-.5 3.5-1.4.2-.3.2-.8.2-1.2 0-6.2 1.2-8.6.7-15-.1-1.7-1.1-3.3-2.6-4.2-1.4-.9-3.1-1.7-4.6-.9-1.4.8-3.1 3.8-4.2 5.1" fill="#263238"/><path d="m112.5 149.7c.1-.1 6-2.3 6.3 3.8s-5.9 5.2-5.9 5c-.1-.2-.4-8.8-.4-8.8z" fill="#ffbe9d"/><path d="m114.6 156.1s.1.1.3.1c.2.1.5.1.8 0 .6-.3 1.1-1.3 1.1-2.4 0-.6-.2-1.1-.4-1.5s-.5-.7-.8-.8-.5.1-.6.3 0 .3-.1.3c0 0-.1-.1-.1-.4 0-.1.1-.3.2-.4s.4-.2.6-.2c.5 0 .9.4 1.2.9s.4 1.1.5 1.7c0 1.2-.5 2.4-1.4 2.7-.4.1-.8 0-1-.1-.3-.1-.3-.2-.3-.2z" fill="#eb996e"/><path d="m109.5 131.8c1.3-2.6-3.1-5.7-6.2-6.4s-6.9 1.1-9.8 2.3c-1.8.8-3.6 1.8-5.6 1.9-1.3.1-2.6-.3-3.9-.7-1.3-.3-2.6-.6-4-.4-1.3.2-2.6 1-3 2.3s.5 2.9 1.8 3c-1.8-.8-4.1.6-4.2 2.6-.1 1.9 2 3.6 3.9 3.1-.9-.6-2.2.6-2 1.7s1.2 1.8 2.3 2.1c2.6.9 5.6.3 8.1-.8 2.6-1.1 4.9-2.7 7.4-3.8 2.5-1.2 6.8-3.2 9.4-2.5 2 .5 3.5 2.7 4.6 2.1 1-.6 1.6-1.7 1.7-2.9 0-1.3-.3-2.4-.5-3.6" fill="#263238"/><path d="m77.9 133.7s.4.4 1.1 1.1c.7.6 1.9 1.5 3.6 1.9 1.6.4 3.8.4 5.8-.7s3.6-3.1 5.5-5 4.2-3.4 6.6-3.9c2.4-.4 4.7.3 6 1.5 1.3 1.3 1.7 2.8 1.7 3.8 0 .5-.1.9-.2 1.1s-.1.4-.2.4.2-.5.1-1.5c-.1-.9-.5-2.4-1.8-3.5s-3.4-1.7-5.6-1.3-4.4 1.8-6.2 3.7c-1.9 1.9-3.5 3.9-5.7 5.1-2.1 1.2-4.5 1.1-6.2.6s-2.9-1.4-3.6-2.1c-.3-.4-.6-.7-.7-.9s-.2-.3-.2-.3z" fill="#455a64"/><path d="m114 149.3s-.3-.1-.5-.6c-.3-.5-.5-1.2-.5-2.2 0-2 1.5-4.2 1.5-7 0-1.4-.3-2.6-1-3.6-.7-.9-1.6-1.5-2.4-1.8s-1.6-.2-2.1-.1-.7.3-.8.2c0 0 .2-.2.7-.4s1.3-.3 2.2-.1 2 .8 2.8 1.9c.8 1 1.2 2.5 1.1 3.9 0 1.5-.4 2.8-.9 3.9-.4 1.1-.8 2.1-.9 3 0 2 .9 2.9.8 2.9z" fill="#455a64"/><path d="m115.5 158.2c.1 0 .1.2.4.4s.7.2.9-.2 0-.8-.3-.9c-.3-.2-.5-.1-.5-.2 0 0 .2-.3.7-.2.2.1.5.2.6.5.2.3.1.7 0 1-.2.3-.5.5-.9.5-.3 0-.6-.2-.8-.3-.3-.3-.2-.7-.1-.6z" fill="#263238"/><path d="m122.5 287c-1.2-1.8-3.9-1.3-6-.8-9.2 2.6-19.5 8.6-29 7.5-9.5-1-17.4-14.4-24.2-21.2l-4.8 12.3c2.3 3.9 5 10.2 22.4 12.5 0 .3-.1.6 0 .9.1 1.1.6 2.1 1.3 2.9-2.6 3.1-4.4 6.9-5 11-.4 2.7-.3 5.5-.9 8.2-.5 2.7-1.9 5.5-4.3 6.8-.7.4-1.5.7-1.9 1.4s-.2 1.5.1 2.1c1.2 2.5 4.9 3.1 7.4 1.8s4.1-3.9 5.2-6.5c2.5-5.8 3.4-12.2 4.3-18.5 0-.1 0-.1 0-.2.5.5 1.1.8 1.7 1 1.2.4 2.8.3 3.5 1.3.4.6.4 1.4.4 2.2s.3 1.6 1 1.9 1.5-.1 2.2-.5c1.7-1 3.4-2.1 5.1-3.1.3-.2.6-.4.6-.7s-.4-.6-.7-.7-.7 0-1 0c-.7-.1-1.2-.7-1.5-1.3s-.4-1.3-.6-1.9c-.8-2.4-3.2-4.1-5.6-4.7-1-.3-2.1-.4-3.1-.5.3-.4.5-.8.6-1.3.1-.3.1-.6.1-1 4.6.2 13.8.2 23.2-1.8 3-.6 8.3-.7 8.3-.7.4-2.2 2.3-6.8 1.2-8.4z" fill="#455a64"/><path d="m82.1 301.4s.3-.7 1.4-1.3c.5-.3 1.3-.5 2.1-.6h.6c.2 0 .5.1.7.4.2.2.2.5.3.7 0 .2.1.4.1.7.3 1.8.2 3.5.1 4.7-.2 1.2-.4 1.9-.4 1.9-.2 0 .4-2.9-.1-6.5-.1-.4-.1-.9-.3-1.1-.1-.2-.6-.2-1-.2-.7 0-1.4.2-1.9.4-1.1.3-1.5 1-1.6.9z" fill="#263238"/><path d="m88.9 300.7c-.1.1-.5-.1-1.1-.2s-1.1-.2-1.1-.3.5-.4 1.2-.2c.7.1 1.1.6 1 .7z" fill="#263238"/><path d="m89.7 299.1c-.1 0 .1-.8-.2-2-.1-.6-.4-1.3-.9-1.8-.5-.6-1.3-.9-2.2-.9-.9-.1-1.8 0-2.5.2-.8.2-1.3.6-1.7 1.1-.8.9-.8 1.7-.9 1.7 0 0-.2-.9.6-1.9.4-.5 1.1-1 1.9-1.3s1.8-.4 2.7-.3c1 .1 2 .4 2.6 1.1s.8 1.4.9 2.1c0 1.3-.3 2-.3 2z" fill="#263238"/><path d="m87.2 294.7c.1 0 .3.2.6.7.2.5.4 1.3.2 2.2s-.7 1.5-1.1 1.9-.8.5-.8.4c-.1-.1 1.1-.9 1.4-2.4s-.5-2.7-.3-2.8z" fill="#263238"/><path d="m71.1 287.4c.1-.1 2 2.2 4.9 4.3s5.7 3.2 5.6 3.3c0 .1-.7-.1-1.9-.6-1.1-.5-2.6-1.2-4.1-2.3s-2.7-2.3-3.5-3.2c-.7-.8-1.1-1.4-1-1.5z" fill="#263238"/><path d="m81.2 295.9c0 .1-1.2.2-2.7 0s-2.6-.6-2.5-.8c0-.1 1.2.1 2.6.3s2.6.4 2.6.5z" fill="#263238"/><path d="m100.1 295.1c0 .1-2.3.9-5.2 1.2-3 .4-5.4.2-5.4 0s2.4-.2 5.3-.6c2.9-.2 5.2-.7 5.3-.6z" fill="#263238"/><path d="m95.1 297.7c0 .1-1.3.4-2.8.2-1.6-.2-2.8-.7-2.7-.8 0-.1 1.3.1 2.8.3 1.5.1 2.7.1 2.7.3z" fill="#263238"/><path d="m81 315.4c-.1 0-.2-.9-.2-2.3s.3-3.4.9-5.6c.7-2.1 1.6-3.9 2.4-5.1s1.4-1.8 1.5-1.8c.1.1-2.1 2.9-3.4 7.1-1.3 4.1-1 7.7-1.2 7.7z" fill="#263238"/><path d="m94.5 307.9c-.1 0-.3-.5-.8-1.2s-1.3-1.6-2.4-2.5c-2.1-1.7-3.9-3.2-3.8-3.3s1.9 1.2 4.1 2.9c1.1.9 1.9 1.9 2.3 2.7.6.8.7 1.3.6 1.4z" fill="#263238"/><path d="m120.2 296.3c-.1 0 0-1.8.2-3.9.3-2.1.6-3.9.8-3.8.1 0 0 1.8-.2 3.9-.4 2.1-.7 3.8-.8 3.8z" fill="#263238"/><path d="m67.5 231.6-16.4-.8c-1.6-.1-3.1-1.2-3.6-2.7l-9.5-27.9c-.9-2.7 1.1-5.4 3.9-5.3l23.6.8c1.8.1 3.3 1.3 3.8 3l6 23.4c1.2 4.9-2.7 9.7-7.8 9.5z" fill="#455a64"/><path d="m63.3 220.4c-1.2 1.2-13.4-5-15.3-4.6s-3.1 1.5-2 2.4c1.1.8 9.4 4.5 9.8 5.6 0 0-12.6-4-13.2-3.2-.5.8-1.4 2-.1 2.6 1.3.5 12.2 4 13.1 4.5s4.2 1.7 4.9 1.7c.4 0 2.8 1 5.1 1.9 2.5 1 5.4 1.1 8 .2l1.3-.5c2.1-.7 3.4-2.7 3.4-4.9v-4.4l1.6-3.5-2.8-5.9-4.6-1.5 1.8 5.5c-1.8.9-4.9 1.5-6.5.6s-7.7-6.9-8.8-6.4c-1.2.6-2.2 2-1.1 3.3.9 1.2 6.6 5.4 5.4 6.6" fill="#ffbe9d"/><path d="m55.8 205.1c0 1-.8 1.8-1.8 1.8s-1.8-.8-1.8-1.8.8-1.8 1.8-1.8c1.1.1 1.8.8 1.8 1.8z" fill="#fff"/><path d="m72 216.9s-.1-.1-.2-.4c-.1-.4-.3-.8-.5-1.3-.4-1.1-.9-2.8-1.6-4.9-.6-2.1-1.4-4.5-2.1-7.3-.4-1.4-.5-3-1.4-4.1-1-1.1-2.7-1.3-4.3-1.3-6.6-.1-12.6-.2-16.9-.4-2.1-.1-3.8-.1-5.1-.2-.6 0-1-.1-1.4-.1-.3 0-.5 0-.5-.1h.5 1.4 5.1c4.3 0 10.3.1 16.9.2.8 0 1.7.1 2.5.3s1.6.6 2.2 1.2.8 1.4 1 2.2c.2.7.3 1.4.5 2.1.7 2.8 1.4 5.2 2 7.3.6 2 1.1 3.7 1.4 4.9.1.5.3 1 .4 1.3.1.4.1.5.1.6z" fill="#263238"/><path d="m432.6 436.5s-.1-.2-.2-.5c-.2-.4-.4-.8-.7-1.4-.6-1.3-1.3-3.2-2-5.8-1.3-5.1-1.8-13 .2-22.3.9-4.7 2.4-9.7 4.1-15 1.8-5.3 3.8-11 5.4-17.1s2.9-12.7 2.7-19.6c-.3-6.9-2.3-13.9-4.6-20.8s-4.6-13.7-5.3-20.4c-.8-6.8.7-13.4 3.7-18.9s6.8-10.2 9.6-15.1c2.9-4.9 4.6-9.9 5.8-14.5 2.1-9.4 1.4-17.3.4-22.5-1.1-5.2-2.3-7.9-2.3-7.9s0 .2.1.5c.1.4.3.9.5 1.5.4 1.3.9 3.3 1.5 5.9.9 5.2 1.6 13-.6 22.3-1.1 4.6-2.9 9.5-5.8 14.3-2.8 4.8-6.6 9.5-9.6 15.1-3.2 5.5-4.7 12.4-3.9 19.3.7 6.9 3.1 13.7 5.3 20.6 2.3 6.9 4.3 13.7 4.5 20.6.3 6.8-1 13.4-2.6 19.4-1.6 6.1-3.6 11.7-5.4 17.1-1.8 5.3-3.2 10.4-4.1 15.1-1.9 9.4-1.4 17.3.1 22.5.7 2.6 1.5 4.5 2.1 5.8.3.6.6 1.1.7 1.4.3.2.4.4.4.4z" fill="#263238"/><path d="m441.8 284.4s5.7-18.3-4.5-29c-.4-.4-1-.2-1.1.3-.5 3-1.2 12.2 5.6 28.7z" fill="#e8505b"/><path d="m438.4 261.5c-.1 0 .1 1.3.4 3.4.4 2.3.8 5.1 1.3 8.1s.9 5.7 1.3 8.1c.3 2.1.5 3.3.6 3.3s.1-1.3-.1-3.4-.6-5-1.1-8.1c-.5-3.2-1.1-6-1.5-8-.5-2.2-.8-3.4-.9-3.4z" fill="#263238"/><path d="m435.1 327.5s-3.5-18.8-17.6-23.5c-.5-.2-1 .3-.8.8 1 2.9 4.6 11.4 18.4 22.7z" fill="#e8505b"/><path d="m421.4 308.9c-.1.1.7 1.1 1.9 2.8 1.4 1.9 3.1 4.1 4.9 6.5s3.5 4.6 4.9 6.5c1.2 1.7 2 2.7 2.1 2.7s-.5-1.2-1.7-3c-1.1-1.8-2.8-4.1-4.7-6.7-1.9-2.5-3.7-4.8-5.1-6.4-1.4-1.5-2.3-2.5-2.3-2.4z" fill="#263238"/><path d="m438.9 374.8s2.1-19-10-27.6c-.4-.3-1 0-1 .5.1 3.1 1.1 12.2 11 27.1z" fill="#e8505b"/><path d="m431.2 352.9c-.1 0 .3 1.3 1 3.2.8 2.2 1.8 4.8 2.8 7.7s2 5.5 2.8 7.7c.7 2 1.1 3.2 1.2 3.2s-.2-1.3-.7-3.3c-.6-2-1.5-4.8-2.6-7.8s-2.2-5.7-3-7.6c-.9-1.9-1.4-3.1-1.5-3.1z" fill="#263238"/><path d="m428.3 422.3s1.4-19.1-11-27.2c-.4-.3-1 0-1 .6.2 3 1.6 12.1 12 26.6z" fill="#e8505b"/><path d="m419.8 400.8c-.1 0 .4 1.3 1.1 3.2.9 2.2 1.9 4.7 3.1 7.6 1.1 2.8 2.2 5.4 3.1 7.6.8 1.9 1.2 3.1 1.3 3.1s-.2-1.3-.9-3.3-1.7-4.7-2.9-7.7-2.4-5.6-3.3-7.5c-.8-1.9-1.4-3.1-1.5-3z" fill="#263238"/><path d="m450 268.3s17-8.9 17.3-23.7c0-.5-.6-.8-1-.5-2.5 1.7-9.5 7.7-16.3 24.2z" fill="#e8505b"/><path d="m463.8 249.7c-.1-.1-.9 1-2.1 2.7-1.4 1.9-3 4.1-4.8 6.6s-3.4 4.7-4.8 6.6c-1.2 1.7-2 2.7-1.9 2.8s1-.9 2.3-2.5 3.1-3.9 5-6.5 3.5-5 4.6-6.8c1.2-1.7 1.8-2.8 1.7-2.9z" fill="#263238"/><path d="m431.8 307.6s17.5-7.8 18.7-22.6c0-.5-.5-.9-1-.6-2.6 1.6-9.9 7.2-17.7 23.2z" fill="#e8505b"/><path d="m446.7 289.9c-.1-.1-.9.9-2.3 2.5-1.5 1.8-3.2 4-5.2 6.3-1.9 2.4-3.7 4.5-5.2 6.3-1.3 1.6-2.2 2.6-2.1 2.7s1-.8 2.5-2.3c1.4-1.5 3.4-3.7 5.4-6.2s3.8-4.8 5-6.5c1.3-1.7 2-2.8 1.9-2.8z" fill="#263238"/><path d="m441.9 351.4s12-14.9 6.4-28.6c-.2-.5-.9-.5-1.1-.1-1.7 2.6-5.7 10.9-5.3 28.7z" fill="#e8505b"/><path d="m447.1 328.8c-.1 0-.4 1.2-.9 3.3-.5 2.3-1.1 5-1.7 8-.7 3-1.3 5.7-1.8 8-.5 2-.8 3.3-.7 3.3s.6-1.2 1.1-3.2c.6-2 1.3-4.8 2-7.9s1.2-6 1.5-8c.4-2.2.6-3.5.5-3.5z" fill="#263238"/><path d="m430 402.9s17.4-8.1 18.3-22.9c0-.5-.5-.9-1-.6-2.5 1.7-9.8 7.4-17.3 23.5z" fill="#e8505b"/><path d="m444.6 385c-.1-.1-.9.9-2.2 2.6-1.5 1.8-3.2 4-5.1 6.4s-3.6 4.5-5.1 6.4c-1.3 1.6-2.1 2.6-2.1 2.7.1.1 1-.8 2.4-2.4 1.4-1.5 3.3-3.8 5.3-6.3s3.7-4.8 4.9-6.5c1.3-1.8 1.9-2.9 1.9-2.9z" fill="#263238"/><path d="m419.8 320.3s-.1.1-.1.4c-.1.3-.2.7-.3 1.2-.3 1.1-.6 2.6-1 4.5-.9 4-2.1 9.6-3.5 16.2-.6 7 .7 15.4 3.3 23.8 1.9 6.2 4.1 12 5.9 17.3s3.3 10.2 4 14.3c.8 4.2 1 7.6 1 10 0 1.2 0 2.1-.1 2.7v1s.1-.3.1-.9c.1-.6.1-1.5.2-2.7.1-2.4 0-5.9-.8-10.1-.7-4.2-2.1-9.1-3.9-14.4s-3.9-11.1-5.8-17.3c-2.6-8.4-3.9-16.6-3.4-23.6 1.3-6.7 2.5-12.3 3.3-16.3.4-1.9.7-3.4.9-4.6.1-.5.1-.9.2-1.2 0-.2 0-.3 0-.3z" fill="#263238"/><path d="m418.1 365s-2.4-19 9.6-27.7c.4-.3 1 0 1 .5.1 3.1-.9 12.3-10.6 27.2z" fill="#e8505b"/><path d="m425.6 343.1c-.1 0-.6 1.1-1.5 3.1-.8 1.9-1.8 4.6-2.9 7.6s-1.9 5.8-2.5 7.8-.8 3.3-.7 3.3.5-1.2 1.2-3.2c.8-2.2 1.7-4.8 2.7-7.7s1.9-5.5 2.7-7.7c.7-1.9 1.1-3.1 1-3.2z" fill="#263238"/><path d="m414.9 341.7s-12.2-14.8-6.8-28.6c.2-.5.8-.6 1.1-.1 1.7 2.6 5.8 10.9 5.7 28.7z" fill="#e8505b"/><path d="m409.4 319.2c-.1 0 .1 1.3.4 3.4.4 2.1.9 4.9 1.6 8s1.5 5.9 2.1 7.9 1.1 3.2 1.2 3.2-.2-1.3-.7-3.3c-.5-2.3-1.2-5-1.9-7.9-.7-3-1.3-5.7-1.8-8-.5-2.1-.8-3.3-.9-3.3z" fill="#263238"/><path d="m427.4 393.1s-17.5-7.9-18.6-22.7c0-.5.5-.9 1-.6 2.6 1.6 9.9 7.2 17.6 23.3z" fill="#e8505b"/><path d="m412.6 375.3c-.1.1.6 1.1 1.9 2.8 1.2 1.7 3 4 5 6.5s3.9 4.7 5.4 6.2c1.4 1.5 2.4 2.4 2.5 2.3s-.8-1.1-2.1-2.7c-1.5-1.8-3.2-4-5.2-6.3-1.9-2.4-3.7-4.5-5.2-6.3-1.4-1.6-2.2-2.5-2.3-2.5z" fill="#263238"/><path d="m444.6 430.6-5.5 35.6h-21.6l-7.3-35.6z" fill="#455a64"/><path d="m413.3 444.3s.1.1.2.1c.1.1.3.2.6.3.5.3 1.3.6 2.4.7s2.5.1 4-.4 3.1-1.4 4.3-3.1c.6-.8.9-1.9 1-3s-.3-2.4-1.5-3.1c-1.1-.6-2.6-.4-3.6.3-1.1.7-1.8 2-2.1 3.3s-.3 2.7-.3 4c.1 1.4.3 2.8.9 4.1.5 1.3 1.4 2.6 2.5 3.6s2.6 1.7 4.2 1.7c1.6.1 3.1-.5 4.3-1.3 1.3-.8 2.3-1.8 3.2-2.9s1.6-2.5 1.6-3.9c.1-1.4-.4-2.9-1.5-3.8s-2.7-.8-3.8-.2c-1.2.6-2 1.7-2.2 2.9-.4 2.4 1 4.6 2.7 5.6 1.8 1 3.7 1 5.2.8 1.6-.3 2.8-.9 3.7-1.5s1.6-1.1 2.1-1.4c.5-.4.7-.6.7-.6s-.3.2-.7.5c-.5.3-1.2.8-2.1 1.3-1 .5-2.2 1.1-3.7 1.3s-3.3.2-5-.8c-1.6-.9-2.9-3-2.5-5.2.2-1.1.9-2 2-2.5 1-.5 2.3-.6 3.3.2.9.7 1.4 2 1.3 3.3s-.7 2.5-1.5 3.6c-.9 1.1-1.9 2-3.1 2.8-1.2.7-2.6 1.2-4 1.2-1.4-.1-2.8-.7-3.8-1.6-1.1-.9-1.9-2.1-2.4-3.4s-.8-2.6-.9-3.9 0-2.6.2-3.9c.3-1.2.9-2.3 1.8-3 .9-.6 2.2-.8 3.1-.3s1.3 1.6 1.3 2.6-.4 2-.9 2.8c-1.1 1.6-2.6 2.5-4 3s-2.8.6-3.9.5c-2 0-3-.8-3.1-.7z" fill="#263238"/><path d="m458.1 466c0 .1-94.3.1-210.7.1s-210.7 0-210.7-.1 94.3-.1 210.7-.1 210.7.1 210.7.1z" fill="#263238"/></svg>